<svg width="34" height="50" viewBox="0 0 34 50" fill="none" xmlns="http://www.w3.org/2000/svg">
<path d="M14.0287 10.94C14.9877 11.598 16.1515 11.8891 17.3074 11.76H18.1274C18.8341 11.76 19.5118 11.4793 20.0114 10.9796C20.5111 10.48 20.7918 9.80228 20.7918 9.09564C20.7918 8.389 20.5111 7.71131 20.0114 7.21164C19.5118 6.71198 18.8341 6.43127 18.1274 6.43127H16.2824C15.5797 6.41874 14.9092 6.1339 14.4123 5.63677C13.9154 5.13964 13.6309 4.46904 13.6187 3.76627C13.6312 3.06371 13.9159 2.39342 14.4127 1.89656C14.9096 1.3997 15.5799 1.11503 16.2824 1.10252H17.1024C18.9474 1.10252 19.7662 1.30752 20.3812 1.92252M26.2224 10.94C27.1815 11.598 28.3453 11.8891 29.5012 11.76H30.3212C31.0278 11.76 31.7055 11.4793 32.2052 10.9796C32.7048 10.48 32.9855 9.80228 32.9855 9.09564C32.9855 8.389 32.7048 7.71131 32.2052 7.21164C31.7055 6.71198 31.0278 6.43127 30.3212 6.43127H28.4774C27.7744 6.41906 27.1036 6.13437 26.6065 5.6372C26.1093 5.14004 25.8246 4.46925 25.8124 3.76627C25.8249 3.06371 26.1096 2.39342 26.6065 1.89656C27.1033 1.3997 27.7736 1.11503 28.4762 1.10252H29.2962C31.1412 1.10252 31.9612 1.30752 32.5762 1.92252M8.59742 9.81252C8.25385 10.4351 7.74919 10.954 7.13629 11.3146C6.5234 11.6753 5.82481 11.8645 5.11367 11.8625C4.0272 11.8595 2.98607 11.4266 2.21781 10.6584C1.44956 9.89012 1.01664 8.84899 1.01367 7.76252V5.10002C1.01664 4.01354 1.44956 2.97241 2.21781 2.20416C2.98607 1.4359 4.0272 1.00298 5.11367 1.00002C5.82481 0.998022 6.5234 1.18726 7.13629 1.54792C7.74919 1.90858 8.25385 2.42738 8.59742 3.05002M3.73992 18.5375H30.0587L27.3449 47.2163L16.9849 49.75L6.62617 47.2163L5.90742 41.3163M5.00242 31.655H28.4562" stroke="#FFEEDB" stroke-linecap="round" stroke-linejoin="round"/>
</svg>
