<svg width="30" height="42" viewBox="0 0 30 42" fill="none" xmlns="http://www.w3.org/2000/svg">
<path fill-rule="evenodd" clip-rule="evenodd" d="M6.4625 15.1227C5.61449 15.1227 4.77479 15.2742 3.99132 15.5687C3.20786 15.8631 2.496 16.2947 1.89636 16.8387C1.29673 17.3828 0.821071 18.0287 0.496551 18.7395C0.172031 19.4504 0.00500325 20.2122 0.00500325 20.9817C0.00500325 21.7511 0.172031 22.513 0.496551 23.2238C0.821071 23.9346 1.29673 24.5805 1.89636 25.1246C2.496 25.6686 3.20786 26.1002 3.99132 26.3947C4.77479 26.6891 5.61449 26.8406 6.4625 26.8406H12.92V21.0996C12.919 21.021 12.919 20.9423 12.92 20.8637V15.1227H6.4625ZM12.92 11.7202H6.4625C4.74954 11.7202 3.10673 11.1028 1.89548 10.0039C0.684226 8.90487 0.00375275 7.41432 0.00375275 5.86012C0.00375275 4.30592 0.684226 2.81538 1.89548 1.71639C3.10673 0.617404 4.74954 0 6.4625 0H12.92V11.7202ZM16.67 0V11.7202H23.1275C24.8185 11.6901 26.4289 11.0594 27.613 9.96369C28.7971 8.86799 29.4604 7.39465 29.4604 5.86012C29.4604 4.32559 28.7971 2.85225 27.613 1.75655C26.4289 0.660855 24.8185 0.0301862 23.1275 0H16.67ZM23.1275 15.1204C21.4325 15.1202 19.8053 15.7247 18.5972 16.8035C17.3891 17.8822 16.6969 19.3487 16.67 20.8864V21.0747C16.6907 22.2292 17.0869 23.3525 17.809 24.3034C18.531 25.2543 19.5466 25.9904 20.7282 26.4193C21.9098 26.8481 23.2048 26.9507 24.4504 26.7139C25.6961 26.4772 26.8368 25.9118 27.7295 25.0888C28.6221 24.2657 29.2268 23.2217 29.4675 22.0878C29.7083 20.954 29.5744 19.7809 29.0828 18.7158C28.5911 17.6508 27.7635 16.7413 26.7039 16.1016C25.6444 15.4619 24.4002 15.1206 23.1275 15.1204ZM6.4625 30.2431C5.18473 30.2426 3.93551 30.586 2.87284 31.2298C1.81017 31.8735 0.981785 32.7888 0.49246 33.8598C0.00313409 34.9307 -0.125153 36.1093 0.123825 37.2464C0.372803 38.3835 0.987861 39.4281 1.89121 40.2481C2.79456 41.068 3.94562 41.6265 5.1988 41.8528C6.45199 42.0791 7.751 41.9632 8.93156 41.5196C10.1121 41.0761 11.1212 40.3248 11.8311 39.3609C12.5411 38.397 12.92 37.2637 12.92 36.1043V30.2431H6.4625Z" fill="#FFEEDB"/>
</svg>
