<svg width="50" height="50" viewBox="0 0 50 50" fill="none" xmlns="http://www.w3.org/2000/svg">
<path fill-rule="evenodd" clip-rule="evenodd" d="M25 4.16667C13.4937 4.16667 4.16667 13.4937 4.16667 25C4.16667 36.5062 13.4937 45.8333 25 45.8333C36.5062 45.8333 45.8333 36.5062 45.8333 25C45.8333 13.4937 36.5062 4.16667 25 4.16667ZM0 25C0 11.1927 11.1927 0 25 0C38.8073 0 50 11.1927 50 25C50 38.8073 38.8073 50 25 50C11.1927 50 0 38.8073 0 25Z" fill="#AA8F66"/>
<path fill-rule="evenodd" clip-rule="evenodd" d="M19.9823 47.3666C19.7812 47.1062 19.7812 44.7885 19.9823 40.4145C17.8239 40.4895 16.4614 40.3395 15.8916 39.9656C15.0385 39.4041 14.1833 37.6739 13.426 36.4541C12.6677 35.2354 10.9854 35.0416 10.3062 34.7687C9.62705 34.4968 9.45622 33.3854 12.1781 34.2249C14.9 35.0656 15.0323 37.3552 15.8916 37.8895C16.751 38.4249 18.8041 38.1916 19.7343 37.7624C20.6645 37.3333 20.5958 35.7374 20.7625 35.1052C20.9718 34.5145 20.2323 34.3833 20.2166 34.3791C19.3073 34.3791 14.5354 33.3406 13.2239 28.7197C11.9135 24.0979 13.602 21.077 14.5031 19.7781C15.1031 18.9135 15.05 17.0677 14.3437 14.2437C16.9093 13.9156 18.8906 14.7229 20.2843 16.6666C20.2864 16.677 22.1135 15.5802 25 15.5802C27.8875 15.5802 28.9114 16.4739 29.702 16.6666C30.4937 16.8593 31.125 13.2645 36.0073 14.2437C34.9875 16.2468 34.1343 18.7499 34.7854 19.7791C35.4375 20.8072 37.9937 24.0781 36.4239 28.7197C35.376 31.8135 33.3177 33.6999 30.2479 34.3791C29.8968 34.4916 29.7208 34.6729 29.7208 34.9229C29.7208 35.2979 30.1958 35.3385 30.8812 37.0958C31.3395 38.2666 31.3718 41.6124 30.9812 47.1322C29.9906 47.3843 29.2198 47.5541 28.6687 47.6406C27.6927 47.7937 26.6323 47.8802 25.5906 47.9124C24.5489 47.9458 24.1875 47.9427 22.7468 47.8083C21.8164 47.7238 20.8927 47.5763 19.9823 47.3666Z" fill="#AA8F66"/>
</svg>
