<svg width="60" height="62" viewBox="0 0 60 62" fill="none" xmlns="http://www.w3.org/2000/svg">
<path d="M59.7914 11.795L54.3443 56.1288L29.8591 61.0604L5.44148 56.1356L0 11.795H59.7914Z" fill="#FFEEDB"/>
<path d="M29.8958 57.2946L49.681 53.3096L54.3357 15.4243H29.8958V57.2946Z" fill="#F16529"/>
<path d="M19.3066 27.2137H29.8957V21.7755H11.1262L11.3053 23.2345L13.1451 38.2207H29.8957V32.7825H19.9908L19.3066 27.2137ZM20.9936 40.9399H13.4796L14.5282 49.4786L29.8612 52.5709L29.8957 52.5641V46.9061L29.8629 46.9124L21.5266 45.277L20.9936 40.9399Z" fill="#AA8F66"/>
<path d="M5.56299 0H9.36689V2.73042H12.8467V0H16.6508V8.26839H12.8469V5.49966H9.36713V8.26839H5.56322L5.56299 0ZM21.6528 2.742H18.3046V0H28.8078V2.742H25.4574V8.26839H21.6535V2.742H21.6528ZM30.4747 0H34.441L36.8809 2.90529L39.3184 0H43.2864V8.26839H39.4979V4.17012L36.8809 7.10998H36.8153L34.1966 4.17012V8.26839H30.4747V0ZM45.1794 0H48.9845V5.53542H54.3338V8.26839H45.1792V0H45.1794Z" fill="white"/>
<path d="M29.8699 38.2207H39.0871L38.2181 45.2736L29.8696 46.9107V52.5684L45.2149 49.4787L45.3274 48.5598L47.0866 34.2428L47.2692 32.7825H29.8699V38.2207ZM29.8699 27.2004V27.2137H47.9503L48.1003 25.9914L48.4415 23.2345L48.6203 21.7755H29.8699V27.2004Z" fill="white"/>
</svg>
