<svg width="50" height="50" viewBox="0 0 50 50" fill="none" xmlns="http://www.w3.org/2000/svg">
<path d="M25 16.6666C22.7898 16.6666 20.6702 17.5446 19.1074 19.1074C17.5446 20.6702 16.6666 22.7898 16.6666 25C16.6666 27.2101 17.5446 29.3297 19.1074 30.8925C20.6702 32.4553 22.7898 33.3333 25 33.3333C27.2101 33.3333 29.3297 32.4553 30.8925 30.8925C32.4553 29.3297 33.3333 27.2101 33.3333 25C33.3333 22.7898 32.4553 20.6702 30.8925 19.1074C29.3297 17.5446 27.2101 16.6666 25 16.6666Z" fill="#AA8F66"/>
<path fill-rule="evenodd" clip-rule="evenodd" d="M15 0C11.0218 0 7.20644 1.58035 4.3934 4.3934C1.58035 7.20644 0 11.0218 0 15L0 35C0 38.9782 1.58035 42.7936 4.3934 45.6066C7.20644 48.4196 11.0218 50 15 50H35C38.9782 50 42.7936 48.4196 45.6066 45.6066C48.4196 42.7936 50 38.9782 50 35V15C50 11.0218 48.4196 7.20644 45.6066 4.3934C42.7936 1.58035 38.9782 0 35 0L15 0ZM13.3333 25C13.3333 21.9058 14.5625 18.9383 16.7504 16.7504C18.9383 14.5625 21.9058 13.3333 25 13.3333C28.0942 13.3333 31.0617 14.5625 33.2496 16.7504C35.4375 18.9383 36.6667 21.9058 36.6667 25C36.6667 28.0942 35.4375 31.0617 33.2496 33.2496C31.0617 35.4375 28.0942 36.6667 25 36.6667C21.9058 36.6667 18.9383 35.4375 16.7504 33.2496C14.5625 31.0617 13.3333 28.0942 13.3333 25ZM36.6667 13.3333H40V10H36.6667V13.3333Z" fill="#AA8F66"/>
</svg>
