<svg width="60" height="60" viewBox="0 0 60 60" fill="none" xmlns="http://www.w3.org/2000/svg">
<path d="M29.9062 59.0566C29.0089 59.0566 28.0982 58.8457 27.308 58.4473L19.0446 54.1699C17.8125 53.5605 18.4152 53.3496 18.817 53.2324C20.4643 52.7285 20.7991 52.6231 22.5536 51.7441C22.7411 51.6504 22.9821 51.6855 23.1696 51.791L29.5179 55.084C29.7455 55.2012 30.067 55.2012 30.2812 55.084L55.0179 42.5918C55.2455 42.4746 55.3929 42.2402 55.3929 42.0059V17.0215C55.3929 16.7754 55.2455 16.5527 55.0045 16.4238L30.2812 3.94336C30.0536 3.82617 29.7455 3.82617 29.5179 3.94336L4.80804 16.4355C4.56696 16.5527 4.41964 16.7871 4.41964 17.0332V42.0059C4.41964 42.2402 4.56696 42.4746 4.80804 42.5801L11.5848 46.002C15.2679 47.6074 17.5179 45.7207 17.5179 43.8105V19.1543C17.5179 18.8027 17.8393 18.5332 18.2411 18.5332H21.375C21.7634 18.5332 22.0982 18.8027 22.0982 19.1543V43.8223C22.0982 48.1113 19.4196 50.5723 14.7723 50.5723C13.3393 50.5723 12.2143 50.5723 9.08036 49.2129L2.59821 45.9434C0.991071 45.1348 0 43.623 0 41.9941V17.0215C0 15.4043 0.991071 13.8809 2.59821 13.0723L27.308 0.580078C28.875 -0.193359 30.9509 -0.193359 32.5045 0.580078L57.2411 13.084C58.8482 13.8926 59.8393 15.4043 59.8393 17.0332V42.0059C59.8393 43.623 58.8482 45.1348 57.2411 45.9551L32.5045 58.4473C31.7143 58.8457 30.817 59.0566 29.9062 59.0566ZM49.875 34.4355C49.875 29.7598 46.2589 28.5176 38.6652 27.6387C30.9777 26.748 30.2009 26.291 30.2009 24.7207C30.2009 23.4199 30.8571 21.6855 36.5491 21.6855C41.625 21.6855 43.5 22.6465 44.2768 25.6465C44.3437 25.9277 44.6384 26.1387 44.9732 26.1387H48.1875C48.3884 26.1387 48.5759 26.0684 48.7098 25.9395C48.8437 25.8105 48.9107 25.6348 48.8973 25.459C48.4018 20.291 44.4777 17.8887 36.5491 17.8887C29.4911 17.8887 25.2857 20.4902 25.2857 24.8613C25.2857 29.5957 29.4777 30.9082 36.2411 31.4941C44.3437 32.1855 44.9732 33.2285 44.9732 34.623C44.9732 37.0371 42.75 38.0684 37.5402 38.0684C30.9911 38.0684 29.558 36.627 29.0759 33.7793C29.0223 33.4746 28.7277 33.252 28.3661 33.252H25.1652C24.7634 33.252 24.4554 33.5332 24.4554 33.8731C24.4554 37.5176 26.7187 41.8652 37.5536 41.8652C45.375 41.8535 49.875 39.1465 49.875 34.4355Z" fill="#FFEEDB"/>
</svg>
