<svg width="38" height="38" viewBox="0 0 38 38" fill="none" xmlns="http://www.w3.org/2000/svg">
<path d="M25.5625 11.4999C23.9657 11.4945 22.3836 11.8039 20.9065 12.4105C19.4295 13.0172 18.0865 13.9091 16.9545 15.0353C15.8225 16.1614 14.9237 17.4998 14.3095 18.9737C13.6953 20.4476 13.3777 22.0282 13.375 23.625V35.875C13.375 36.3722 13.5725 36.8491 13.9242 37.2008C14.2758 37.5524 14.7527 37.7499 15.25 37.7499H19.625C20.1223 37.7499 20.5992 37.5524 20.9508 37.2008C21.3025 36.8491 21.5 36.3722 21.5 35.875V23.625C21.4996 23.057 21.6189 22.4954 21.8501 21.9767C22.0813 21.458 22.4192 20.9938 22.8418 20.6144C23.2644 20.235 23.7622 19.949 24.3028 19.7749C24.8434 19.6008 25.4146 19.5426 25.9792 19.6041C26.9917 19.7316 27.9222 20.2263 28.5942 20.9943C29.2662 21.7624 29.633 22.7503 29.625 23.7708V35.875C29.625 36.3722 29.8225 36.8491 30.1742 37.2008C30.5258 37.5524 31.0027 37.7499 31.5 37.7499H35.875C36.3723 37.7499 36.8492 37.5524 37.2008 37.2008C37.5525 36.8491 37.75 36.3722 37.75 35.875V23.625C37.7473 22.0282 37.4297 20.4476 36.8155 18.9737C36.2013 17.4998 35.3025 16.1614 34.1705 15.0353C33.0385 13.9091 31.6955 13.0172 30.2185 12.4105C28.7414 11.8039 27.1593 11.4945 25.5625 11.4999Z" fill="#61C9A8"/>
<path d="M7.75 13.375H2.125C1.08947 13.375 0.25 14.2145 0.25 15.25V35.875C0.25 36.9105 1.08947 37.75 2.125 37.75H7.75C8.78553 37.75 9.625 36.9105 9.625 35.875V15.25C9.625 14.2145 8.78553 13.375 7.75 13.375Z" fill="#61C9A8"/>
<path d="M4.9375 9.625C7.52633 9.625 9.625 7.52633 9.625 4.9375C9.625 2.34866 7.52633 0.25 4.9375 0.25C2.34866 0.25 0.25 2.34866 0.25 4.9375C0.25 7.52633 2.34866 9.625 4.9375 9.625Z" fill="#61C9A8"/>
</svg>
