<svg width="228" height="125" viewBox="0 0 228 125" fill="none" xmlns="http://www.w3.org/2000/svg">
<rect x="0.5" y="0.5" width="227" height="124" stroke="black"/>
<line x1="10" y1="9.5" x2="26" y2="9.5" stroke="black"/>
<line x1="49" y1="9.5" x2="65" y2="9.5" stroke="black"/>
<line x1="155" y1="9.5" x2="171" y2="9.5" stroke="black"/>
<line x1="202" y1="9.5" x2="218" y2="9.5" stroke="black"/>
<path d="M105.482 10.2663V10.9998H101.824V4.55126H102.692V10.2663H105.482ZM112.106 7.77776C112.106 8.26076 112.029 8.70476 111.876 9.10976C111.723 9.51176 111.507 9.85826 111.228 10.1493C110.949 10.4403 110.613 10.6668 110.22 10.8288C109.83 10.9878 109.398 11.0673 108.924 11.0673C108.45 11.0673 108.018 10.9878 107.628 10.8288C107.238 10.6668 106.904 10.4403 106.625 10.1493C106.346 9.85826 106.13 9.51176 105.977 9.10976C105.824 8.70476 105.747 8.26076 105.747 7.77776C105.747 7.29476 105.824 6.85226 105.977 6.45026C106.13 6.04526 106.346 5.69726 106.625 5.40626C106.904 5.11226 107.238 4.88426 107.628 4.72226C108.018 4.56026 108.45 4.47926 108.924 4.47926C109.398 4.47926 109.83 4.56026 110.22 4.72226C110.613 4.88426 110.949 5.11226 111.228 5.40626C111.507 5.69726 111.723 6.04526 111.876 6.45026C112.029 6.85226 112.106 7.29476 112.106 7.77776ZM111.21 7.77776C111.21 7.38176 111.156 7.02626 111.048 6.71126C110.94 6.39626 110.787 6.13076 110.589 5.91476C110.391 5.69576 110.151 5.52776 109.869 5.41076C109.587 5.29376 109.272 5.23526 108.924 5.23526C108.579 5.23526 108.266 5.29376 107.984 5.41076C107.702 5.52776 107.46 5.69576 107.259 5.91476C107.061 6.13076 106.908 6.39626 106.8 6.71126C106.692 7.02626 106.638 7.38176 106.638 7.77776C106.638 8.17376 106.692 8.52926 106.8 8.84426C106.908 9.15626 107.061 9.42176 107.259 9.64076C107.46 9.85676 107.702 10.0233 107.984 10.1403C108.266 10.2543 108.579 10.3113 108.924 10.3113C109.272 10.3113 109.587 10.2543 109.869 10.1403C110.151 10.0233 110.391 9.85676 110.589 9.64076C110.787 9.42176 110.94 9.15626 111.048 8.84426C111.156 8.52926 111.21 8.17376 111.21 7.77776ZM118.593 7.89926V10.3743C118.269 10.6083 117.922 10.7838 117.553 10.9008C117.187 11.0148 116.785 11.0718 116.347 11.0718C115.828 11.0718 115.36 10.9923 114.943 10.8333C114.526 10.6713 114.169 10.4463 113.872 10.1583C113.578 9.86726 113.352 9.51926 113.193 9.11426C113.034 8.70926 112.954 8.26376 112.954 7.77776C112.954 7.28576 113.031 6.83726 113.184 6.43226C113.34 6.02726 113.56 5.68076 113.845 5.39276C114.13 5.10176 114.477 4.87676 114.885 4.71776C115.293 4.55876 115.749 4.47926 116.253 4.47926C116.508 4.47926 116.745 4.49876 116.964 4.53776C117.183 4.57376 117.385 4.62776 117.571 4.69976C117.757 4.76876 117.93 4.85426 118.089 4.95626C118.248 5.05526 118.396 5.16776 118.534 5.29376L118.287 5.68976C118.248 5.74976 118.197 5.78876 118.134 5.80676C118.074 5.82176 118.006 5.80676 117.931 5.76176C117.859 5.71976 117.777 5.66876 117.684 5.60876C117.591 5.54876 117.477 5.49176 117.342 5.43776C117.21 5.38076 117.052 5.33276 116.869 5.29376C116.689 5.25476 116.475 5.23526 116.226 5.23526C115.863 5.23526 115.534 5.29526 115.24 5.41526C114.946 5.53226 114.696 5.70176 114.489 5.92376C114.282 6.14276 114.123 6.40976 114.012 6.72476C113.901 7.03676 113.845 7.38776 113.845 7.77776C113.845 8.18276 113.902 8.54576 114.016 8.86676C114.133 9.18476 114.298 9.45626 114.511 9.68126C114.727 9.90326 114.988 10.0728 115.294 10.1898C115.6 10.3068 115.944 10.3653 116.325 10.3653C116.625 10.3653 116.89 10.3323 117.121 10.2663C117.355 10.1973 117.583 10.1028 117.805 9.98276V8.56526H116.802C116.745 8.56526 116.698 8.54876 116.662 8.51576C116.629 8.48276 116.613 8.44226 116.613 8.39426V7.89926H118.593ZM125.887 7.77776C125.887 8.26076 125.81 8.70476 125.657 9.10976C125.504 9.51176 125.288 9.85826 125.009 10.1493C124.73 10.4403 124.394 10.6668 124.001 10.8288C123.611 10.9878 123.179 11.0673 122.705 11.0673C122.231 11.0673 121.799 10.9878 121.409 10.8288C121.019 10.6668 120.685 10.4403 120.406 10.1493C120.127 9.85826 119.911 9.51176 119.758 9.10976C119.605 8.70476 119.528 8.26076 119.528 7.77776C119.528 7.29476 119.605 6.85226 119.758 6.45026C119.911 6.04526 120.127 5.69726 120.406 5.40626C120.685 5.11226 121.019 4.88426 121.409 4.72226C121.799 4.56026 122.231 4.47926 122.705 4.47926C123.179 4.47926 123.611 4.56026 124.001 4.72226C124.394 4.88426 124.73 5.11226 125.009 5.40626C125.288 5.69726 125.504 6.04526 125.657 6.45026C125.81 6.85226 125.887 7.29476 125.887 7.77776ZM124.991 7.77776C124.991 7.38176 124.937 7.02626 124.829 6.71126C124.721 6.39626 124.568 6.13076 124.37 5.91476C124.172 5.69576 123.932 5.52776 123.65 5.41076C123.368 5.29376 123.053 5.23526 122.705 5.23526C122.36 5.23526 122.047 5.29376 121.765 5.41076C121.483 5.52776 121.241 5.69576 121.04 5.91476C120.842 6.13076 120.689 6.39626 120.581 6.71126C120.473 7.02626 120.419 7.38176 120.419 7.77776C120.419 8.17376 120.473 8.52926 120.581 8.84426C120.689 9.15626 120.842 9.42176 121.04 9.64076C121.241 9.85676 121.483 10.0233 121.765 10.1403C122.047 10.2543 122.36 10.3113 122.705 10.3113C123.053 10.3113 123.368 10.2543 123.65 10.1403C123.932 10.0233 124.172 9.85676 124.37 9.64076C124.568 9.42176 124.721 9.15626 124.829 8.84426C124.937 8.52926 124.991 8.17376 124.991 7.77776Z" fill="#AA8F66"/>
<path d="M0.5 112.5H227.5" stroke="black"/>
<path d="M42.8 72.39C42.8817 72.5 42.9708 72.5775 43.0675 72.6225C43.1658 72.6675 43.2733 72.69 43.39 72.69C43.6283 72.69 43.8108 72.6058 43.9375 72.4375C44.0642 72.2692 44.1275 72.0183 44.1275 71.685C44.1275 71.375 44.0708 71.1475 43.9575 71.0025C43.8458 70.8558 43.6858 70.7825 43.4775 70.7825C43.3325 70.7825 43.2058 70.8158 43.0975 70.8825C42.9908 70.9492 42.8917 71.0433 42.8 71.165V72.39ZM42.8 70.8325C42.9067 70.7092 43.0267 70.6108 43.16 70.5375C43.295 70.4642 43.45 70.4275 43.625 70.4275C43.7733 70.4275 43.9067 70.4558 44.025 70.5125C44.145 70.5692 44.2467 70.6517 44.33 70.76C44.4133 70.8667 44.4767 70.9967 44.52 71.15C44.565 71.3033 44.5875 71.4758 44.5875 71.6675C44.5875 71.8725 44.5625 72.0592 44.5125 72.2275C44.4625 72.3958 44.39 72.54 44.295 72.66C44.2017 72.7783 44.0875 72.8708 43.9525 72.9375C43.8175 73.0025 43.6658 73.035 43.4975 73.035C43.3308 73.035 43.19 73.0042 43.075 72.9425C42.9617 72.8792 42.8625 72.79 42.7775 72.675L42.755 72.905C42.7417 72.9683 42.7033 73 42.64 73H42.3525V69.3175H42.8V70.8325ZM47.2329 70.4675V73H46.9679C46.9045 73 46.8645 72.9692 46.8479 72.9075L46.8129 72.635C46.7029 72.7567 46.5795 72.855 46.4429 72.93C46.3062 73.0033 46.1495 73.04 45.9729 73.04C45.8345 73.04 45.712 73.0175 45.6054 72.9725C45.5004 72.9258 45.412 72.8608 45.3404 72.7775C45.2687 72.6942 45.2145 72.5933 45.1779 72.475C45.1429 72.3567 45.1254 72.2258 45.1254 72.0825V70.4675H45.5704V72.0825C45.5704 72.2742 45.6137 72.4225 45.7004 72.5275C45.7887 72.6325 45.9229 72.685 46.1029 72.685C46.2345 72.685 46.357 72.6542 46.4704 72.5925C46.5854 72.5292 46.6912 72.4425 46.7879 72.3325V70.4675H47.2329ZM48.7159 73.04C48.5159 73.04 48.3618 72.9842 48.2534 72.8725C48.1468 72.7608 48.0934 72.6 48.0934 72.39V70.84H47.7884C47.7618 70.84 47.7393 70.8325 47.7209 70.8175C47.7026 70.8008 47.6934 70.7758 47.6934 70.7425V70.565L48.1084 70.5125L48.2109 69.73C48.2159 69.705 48.2268 69.685 48.2434 69.67C48.2618 69.6533 48.2851 69.645 48.3134 69.645H48.5384V70.5175H49.7309L49.8334 69.73C49.8384 69.705 49.8493 69.685 49.8659 69.67C49.8843 69.6533 49.9076 69.645 49.9359 69.645H50.1609V70.5175H50.8934V70.84H50.1609V72.36C50.1609 72.4667 50.1868 72.5458 50.2384 72.5975C50.2918 72.6492 50.3584 72.675 50.4384 72.675C50.4851 72.675 50.5251 72.6692 50.5584 72.6575C50.5934 72.6442 50.6234 72.63 50.6484 72.615C50.6734 72.6 50.6943 72.5867 50.7109 72.575C50.7293 72.5617 50.7451 72.555 50.7584 72.555C50.7834 72.555 50.8043 72.5692 50.8209 72.5975L50.9534 72.81C50.8751 72.8817 50.7818 72.9383 50.6734 72.98C50.5651 73.02 50.4534 73.04 50.3384 73.04C50.1401 73.04 49.9868 72.9842 49.8784 72.8725C49.7701 72.7608 49.7159 72.6 49.7159 72.39V70.84H48.5384V72.36C48.5384 72.4667 48.5643 72.5458 48.6159 72.5975C48.6676 72.6492 48.7343 72.675 48.8159 72.675C48.8626 72.675 48.9026 72.6692 48.9359 72.6575C48.9709 72.6442 49.0009 72.63 49.0259 72.615C49.0509 72.6 49.0718 72.5867 49.0884 72.575C49.1068 72.5617 49.1226 72.555 49.1359 72.555C49.1593 72.555 49.1801 72.5692 49.1984 72.5975L49.3284 72.81C49.2518 72.8817 49.1593 72.9383 49.0509 72.98C48.9426 73.02 48.8309 73.04 48.7159 73.04ZM52.4044 70.4275C52.5894 70.4275 52.756 70.4583 52.9044 70.52C53.0527 70.5817 53.1794 70.6692 53.2844 70.7825C53.3894 70.8958 53.4694 71.0333 53.5244 71.195C53.581 71.355 53.6094 71.5342 53.6094 71.7325C53.6094 71.9325 53.581 72.1125 53.5244 72.2725C53.4694 72.4325 53.3894 72.5692 53.2844 72.6825C53.1794 72.7958 53.0527 72.8833 52.9044 72.945C52.756 73.005 52.5894 73.035 52.4044 73.035C52.2177 73.035 52.0494 73.005 51.8994 72.945C51.751 72.8833 51.6244 72.7958 51.5194 72.6825C51.4144 72.5692 51.3335 72.4325 51.2769 72.2725C51.2219 72.1125 51.1944 71.9325 51.1944 71.7325C51.1944 71.5342 51.2219 71.355 51.2769 71.195C51.3335 71.0333 51.4144 70.8958 51.5194 70.7825C51.6244 70.6692 51.751 70.5817 51.8994 70.52C52.0494 70.4583 52.2177 70.4275 52.4044 70.4275ZM52.4044 72.6875C52.6544 72.6875 52.841 72.6042 52.9644 72.4375C53.0877 72.2692 53.1494 72.035 53.1494 71.735C53.1494 71.4333 53.0877 71.1983 52.9644 71.03C52.841 70.8617 52.6544 70.7775 52.4044 70.7775C52.2777 70.7775 52.1669 70.7992 52.0719 70.8425C51.9785 70.8858 51.9002 70.9483 51.8369 71.03C51.7752 71.1117 51.7285 71.2125 51.6969 71.3325C51.6669 71.4508 51.6519 71.585 51.6519 71.735C51.6519 72.035 51.7135 72.2692 51.8369 72.4375C51.9619 72.6042 52.151 72.6875 52.4044 72.6875ZM54.5938 70.835C54.6488 70.7733 54.7071 70.7175 54.7688 70.6675C54.8305 70.6175 54.8955 70.575 54.9638 70.54C55.0338 70.5033 55.1071 70.4758 55.1838 70.4575C55.2621 70.4375 55.3463 70.4275 55.4363 70.4275C55.5746 70.4275 55.6963 70.4508 55.8013 70.4975C55.908 70.5425 55.9963 70.6075 56.0663 70.6925C56.138 70.7758 56.1921 70.8767 56.2288 70.995C56.2655 71.1133 56.2838 71.2442 56.2838 71.3875V73H55.8363V71.3875C55.8363 71.1958 55.7921 71.0475 55.7038 70.9425C55.6171 70.8358 55.4846 70.7825 55.3063 70.7825C55.1746 70.7825 55.0513 70.8142 54.9363 70.8775C54.823 70.9408 54.718 71.0267 54.6213 71.135V73H54.1738V70.4675H54.4413C54.5046 70.4675 54.5438 70.4983 54.5588 70.56L54.5938 70.835Z" fill="black"/>
<line x1="16" y1="44.5" x2="91" y2="44.5" stroke="black"/>
<line x1="16" y1="51.5" x2="91" y2="51.5" stroke="black"/>
<rect x="29.5" y="67.5" width="40" height="8" stroke="black"/>
<rect x="134.5" y="30.5" width="83" height="61" rx="30.5" stroke="black"/>
<circle cx="176" cy="51" r="8.5" stroke="black"/>
<path d="M176.24 60C161.84 62.4 160.5 82.3333 161.5 91.5" stroke="black"/>
<path d="M176 60C190.4 62.4 192 82.3333 191 91.5" stroke="black"/>
</svg>
