<svg width="228" height="125" viewBox="0 0 228 125" fill="none" xmlns="http://www.w3.org/2000/svg">
<rect x="0.5" y="0.5" width="227" height="124" stroke="black"/>
<line x1="50" y1="34.4998" x2="183" y2="34.4998" stroke="black"/>
<line x1="50" y1="42.4998" x2="183" y2="42.4998" stroke="black"/>
<path d="M19 55L6 67.5L19 80" stroke="#AA8F66"/>
<path d="M210 55L223 67.5L210 80" stroke="#AA8F66"/>
<rect x="70.5" y="10.5" width="86" height="13" stroke="black"/>
<path d="M88.7815 16.778C88.7815 17.261 88.705 17.705 88.552 18.11C88.399 18.512 88.183 18.8585 87.904 19.1495C87.625 19.4405 87.289 19.667 86.896 19.829C86.506 19.988 86.074 20.0675 85.6 20.0675C85.126 20.0675 84.694 19.988 84.304 19.829C83.914 19.667 83.5795 19.4405 83.3005 19.1495C83.0215 18.8585 82.8055 18.512 82.6525 18.11C82.4995 17.705 82.423 17.261 82.423 16.778C82.423 16.295 82.4995 15.8525 82.6525 15.4505C82.8055 15.0455 83.0215 14.6975 83.3005 14.4065C83.5795 14.1125 83.914 13.8845 84.304 13.7225C84.694 13.5605 85.126 13.4795 85.6 13.4795C86.074 13.4795 86.506 13.5605 86.896 13.7225C87.289 13.8845 87.625 14.1125 87.904 14.4065C88.183 14.6975 88.399 15.0455 88.552 15.4505C88.705 15.8525 88.7815 16.295 88.7815 16.778ZM87.886 16.778C87.886 16.382 87.832 16.0265 87.724 15.7115C87.616 15.3965 87.463 15.131 87.265 14.915C87.067 14.696 86.827 14.528 86.545 14.411C86.263 14.294 85.948 14.2355 85.6 14.2355C85.255 14.2355 84.9415 14.294 84.6595 14.411C84.3775 14.528 84.136 14.696 83.935 14.915C83.737 15.131 83.584 15.3965 83.476 15.7115C83.368 16.0265 83.314 16.382 83.314 16.778C83.314 17.174 83.368 17.5295 83.476 17.8445C83.584 18.1565 83.737 18.422 83.935 18.641C84.136 18.857 84.3775 19.0235 84.6595 19.1405C84.9415 19.2545 85.255 19.3115 85.6 19.3115C85.948 19.3115 86.263 19.2545 86.545 19.1405C86.827 19.0235 87.067 18.857 87.265 18.641C87.463 18.422 87.616 18.1565 87.724 17.8445C87.832 17.5295 87.886 17.174 87.886 16.778ZM92.519 19.307C92.786 19.307 93.0245 19.262 93.2345 19.172C93.4445 19.082 93.6215 18.956 93.7655 18.794C93.9125 18.632 94.0235 18.4385 94.0985 18.2135C94.1765 17.9885 94.2155 17.741 94.2155 17.471V13.5515H95.084V17.471C95.084 17.843 95.024 18.188 94.904 18.506C94.787 18.824 94.6175 19.1 94.3955 19.334C94.1765 19.565 93.908 19.7465 93.59 19.8785C93.272 20.0105 92.915 20.0765 92.519 20.0765C92.123 20.0765 91.766 20.0105 91.448 19.8785C91.13 19.7465 90.86 19.565 90.638 19.334C90.416 19.1 90.245 18.824 90.125 18.506C90.008 18.188 89.9495 17.843 89.9495 17.471V13.5515H90.818V17.4665C90.818 17.7365 90.8555 17.984 90.9305 18.209C91.0085 18.434 91.1195 18.6275 91.2635 18.7895C91.4105 18.9515 91.589 19.079 91.799 19.172C92.012 19.262 92.252 19.307 92.519 19.307ZM98.4352 16.6745C98.6872 16.6745 98.9092 16.6445 99.1012 16.5845C99.2962 16.5215 99.4582 16.4345 99.5872 16.3235C99.7192 16.2095 99.8182 16.0745 99.8842 15.9185C99.9502 15.7625 99.9832 15.59 99.9832 15.401C99.9832 15.017 99.8572 14.7275 99.6052 14.5325C99.3532 14.3375 98.9752 14.24 98.4712 14.24H97.5172V16.6745H98.4352ZM101.414 20H100.64C100.481 20 100.364 19.9385 100.289 19.8155L98.6152 17.5115C98.5642 17.4395 98.5087 17.3885 98.4487 17.3585C98.3917 17.3255 98.3017 17.309 98.1787 17.309H97.5172V20H96.6487V13.5515H98.4712C98.8792 13.5515 99.2317 13.5935 99.5287 13.6775C99.8257 13.7585 100.07 13.877 100.262 14.033C100.457 14.189 100.601 14.378 100.694 14.6C100.787 14.819 100.834 15.065 100.834 15.338C100.834 15.566 100.798 15.779 100.726 15.977C100.654 16.175 100.549 16.3535 100.411 16.5125C100.276 16.6685 100.109 16.802 99.9112 16.913C99.7162 17.024 99.4942 17.108 99.2452 17.165C99.3562 17.228 99.4522 17.3195 99.5332 17.4395L101.414 20ZM107.893 14.5595C107.866 14.6045 107.836 14.639 107.803 14.663C107.773 14.684 107.735 14.6945 107.69 14.6945C107.639 14.6945 107.579 14.669 107.51 14.618C107.441 14.567 107.354 14.5115 107.249 14.4515C107.147 14.3885 107.023 14.3315 106.876 14.2805C106.732 14.2295 106.556 14.204 106.349 14.204C106.154 14.204 105.982 14.231 105.832 14.285C105.685 14.336 105.56 14.4065 105.458 14.4965C105.359 14.5865 105.284 14.693 105.233 14.816C105.182 14.936 105.157 15.0665 105.157 15.2075C105.157 15.3875 105.2 15.5375 105.287 15.6575C105.377 15.7745 105.494 15.875 105.638 15.959C105.785 16.043 105.95 16.1165 106.133 16.1795C106.319 16.2395 106.508 16.3025 106.7 16.3685C106.895 16.4345 107.084 16.5095 107.267 16.5935C107.453 16.6745 107.618 16.778 107.762 16.904C107.909 17.03 108.026 17.1845 108.113 17.3675C108.203 17.5505 108.248 17.7755 108.248 18.0425C108.248 18.3245 108.2 18.59 108.104 18.839C108.008 19.085 107.867 19.2995 107.681 19.4825C107.498 19.6655 107.272 19.8095 107.002 19.9145C106.735 20.0195 106.43 20.072 106.088 20.072C105.668 20.072 105.287 19.997 104.945 19.847C104.603 19.694 104.311 19.4885 104.068 19.2305L104.32 18.8165C104.344 18.7835 104.372 18.7565 104.405 18.7355C104.441 18.7115 104.48 18.6995 104.522 18.6995C104.561 18.6995 104.605 18.716 104.653 18.749C104.704 18.779 104.761 18.818 104.824 18.866C104.887 18.914 104.959 18.9665 105.04 19.0235C105.121 19.0805 105.212 19.133 105.314 19.181C105.419 19.229 105.538 19.2695 105.67 19.3025C105.802 19.3325 105.95 19.3475 106.115 19.3475C106.322 19.3475 106.507 19.319 106.669 19.262C106.831 19.205 106.967 19.1255 107.078 19.0235C107.192 18.9185 107.279 18.794 107.339 18.65C107.399 18.506 107.429 18.3455 107.429 18.1685C107.429 17.9735 107.384 17.8145 107.294 17.6915C107.207 17.5655 107.092 17.4605 106.948 17.3765C106.804 17.2925 106.639 17.222 106.453 17.165C106.267 17.105 106.078 17.045 105.886 16.985C105.694 16.922 105.505 16.85 105.319 16.769C105.133 16.688 104.968 16.583 104.824 16.454C104.68 16.325 104.563 16.1645 104.473 15.9725C104.386 15.7775 104.342 15.5375 104.342 15.2525C104.342 15.0245 104.386 14.804 104.473 14.591C104.563 14.378 104.692 14.189 104.86 14.024C105.031 13.859 105.239 13.727 105.485 13.628C105.734 13.529 106.019 13.4795 106.34 13.4795C106.7 13.4795 107.027 13.5365 107.321 13.6505C107.618 13.7645 107.879 13.9295 108.104 14.1455L107.893 14.5595ZM113.459 19.289L113.454 20H109.481V13.5515H113.454V14.2625H110.354V16.4045H112.865V17.0885H110.354V19.289H113.459ZM116.462 16.6745C116.714 16.6745 116.936 16.6445 117.128 16.5845C117.323 16.5215 117.485 16.4345 117.614 16.3235C117.746 16.2095 117.845 16.0745 117.911 15.9185C117.977 15.7625 118.01 15.59 118.01 15.401C118.01 15.017 117.884 14.7275 117.632 14.5325C117.38 14.3375 117.002 14.24 116.498 14.24H115.544V16.6745H116.462ZM119.441 20H118.667C118.508 20 118.391 19.9385 118.316 19.8155L116.642 17.5115C116.591 17.4395 116.535 17.3885 116.475 17.3585C116.418 17.3255 116.328 17.309 116.205 17.309H115.544V20H114.675V13.5515H116.498C116.906 13.5515 117.258 13.5935 117.555 13.6775C117.852 13.7585 118.097 13.877 118.289 14.033C118.484 14.189 118.628 14.378 118.721 14.6C118.814 14.819 118.86 15.065 118.86 15.338C118.86 15.566 118.824 15.779 118.752 15.977C118.68 16.175 118.575 16.3535 118.437 16.5125C118.302 16.6685 118.136 16.802 117.938 16.913C117.743 17.024 117.521 17.108 117.272 17.165C117.383 17.228 117.479 17.3195 117.56 17.4395L119.441 20ZM125.393 13.5515L122.765 20H121.982L119.354 13.5515H120.052C120.13 13.5515 120.193 13.571 120.241 13.61C120.289 13.649 120.325 13.6985 120.349 13.7585L122.167 18.308C122.206 18.41 122.243 18.521 122.279 18.641C122.318 18.761 122.353 18.887 122.383 19.019C122.413 18.887 122.444 18.761 122.477 18.641C122.51 18.521 122.546 18.41 122.585 18.308L124.399 13.7585C124.417 13.7075 124.451 13.661 124.502 13.619C124.556 13.574 124.621 13.5515 124.696 13.5515H125.393ZM127.114 20H126.241V13.5515H127.114V20ZM133.291 18.668C133.339 18.668 133.381 18.6875 133.417 18.7265L133.763 19.1C133.499 19.406 133.178 19.6445 132.8 19.8155C132.425 19.9865 131.971 20.072 131.437 20.072C130.975 20.072 130.555 19.9925 130.177 19.8335C129.799 19.6715 129.476 19.4465 129.209 19.1585C128.942 18.8675 128.735 18.5195 128.588 18.1145C128.441 17.7095 128.368 17.264 128.368 16.778C128.368 16.292 128.444 15.8465 128.597 15.4415C128.75 15.0365 128.965 14.6885 129.241 14.3975C129.52 14.1065 129.853 13.8815 130.24 13.7225C130.627 13.5605 131.054 13.4795 131.522 13.4795C131.981 13.4795 132.386 13.553 132.737 13.7C133.088 13.847 133.397 14.0465 133.664 14.2985L133.376 14.699C133.358 14.729 133.334 14.7545 133.304 14.7755C133.277 14.7935 133.24 14.8025 133.192 14.8025C133.138 14.8025 133.072 14.774 132.994 14.717C132.916 14.657 132.814 14.591 132.688 14.519C132.562 14.447 132.404 14.3825 132.215 14.3255C132.026 14.2655 131.794 14.2355 131.518 14.2355C131.185 14.2355 130.88 14.294 130.604 14.411C130.328 14.525 130.09 14.6915 129.889 14.9105C129.691 15.1295 129.536 15.3965 129.425 15.7115C129.314 16.0265 129.259 16.382 129.259 16.778C129.259 17.18 129.316 17.5385 129.43 17.8535C129.547 18.1685 129.704 18.4355 129.902 18.6545C130.103 18.8705 130.339 19.0355 130.609 19.1495C130.882 19.2635 131.176 19.3205 131.491 19.3205C131.683 19.3205 131.855 19.31 132.008 19.289C132.164 19.265 132.307 19.229 132.436 19.181C132.568 19.133 132.689 19.073 132.8 19.001C132.914 18.926 133.027 18.8375 133.138 18.7355C133.189 18.6905 133.24 18.668 133.291 18.668ZM138.754 19.289L138.749 20H134.776V13.5515H138.749V14.2625H135.649V16.4045H138.16V17.0885H135.649V19.289H138.754ZM143.268 14.5595C143.241 14.6045 143.211 14.639 143.178 14.663C143.148 14.684 143.111 14.6945 143.066 14.6945C143.015 14.6945 142.955 14.669 142.886 14.618C142.817 14.567 142.73 14.5115 142.625 14.4515C142.523 14.3885 142.398 14.3315 142.251 14.2805C142.107 14.2295 141.932 14.204 141.725 14.204C141.53 14.204 141.357 14.231 141.207 14.285C141.06 14.336 140.936 14.4065 140.834 14.4965C140.735 14.5865 140.66 14.693 140.609 14.816C140.558 14.936 140.532 15.0665 140.532 15.2075C140.532 15.3875 140.576 15.5375 140.663 15.6575C140.753 15.7745 140.87 15.875 141.014 15.959C141.161 16.043 141.326 16.1165 141.509 16.1795C141.695 16.2395 141.884 16.3025 142.076 16.3685C142.271 16.4345 142.46 16.5095 142.643 16.5935C142.829 16.6745 142.994 16.778 143.138 16.904C143.285 17.03 143.402 17.1845 143.489 17.3675C143.579 17.5505 143.624 17.7755 143.624 18.0425C143.624 18.3245 143.576 18.59 143.48 18.839C143.384 19.085 143.243 19.2995 143.057 19.4825C142.874 19.6655 142.647 19.8095 142.377 19.9145C142.11 20.0195 141.806 20.072 141.464 20.072C141.044 20.072 140.663 19.997 140.321 19.847C139.979 19.694 139.686 19.4885 139.443 19.2305L139.695 18.8165C139.719 18.7835 139.748 18.7565 139.781 18.7355C139.817 18.7115 139.856 18.6995 139.898 18.6995C139.937 18.6995 139.98 18.716 140.028 18.749C140.079 18.779 140.136 18.818 140.199 18.866C140.262 18.914 140.334 18.9665 140.415 19.0235C140.496 19.0805 140.588 19.133 140.69 19.181C140.795 19.229 140.913 19.2695 141.045 19.3025C141.177 19.3325 141.326 19.3475 141.491 19.3475C141.698 19.3475 141.882 19.319 142.044 19.262C142.206 19.205 142.343 19.1255 142.454 19.0235C142.568 18.9185 142.655 18.794 142.715 18.65C142.775 18.506 142.805 18.3455 142.805 18.1685C142.805 17.9735 142.76 17.8145 142.67 17.6915C142.583 17.5655 142.467 17.4605 142.323 17.3765C142.179 17.2925 142.014 17.222 141.828 17.165C141.642 17.105 141.453 17.045 141.261 16.985C141.069 16.922 140.88 16.85 140.694 16.769C140.508 16.688 140.343 16.583 140.199 16.454C140.055 16.325 139.938 16.1645 139.848 15.9725C139.761 15.7775 139.718 15.5375 139.718 15.2525C139.718 15.0245 139.761 14.804 139.848 14.591C139.938 14.378 140.067 14.189 140.235 14.024C140.406 13.859 140.615 13.727 140.861 13.628C141.11 13.529 141.395 13.4795 141.716 13.4795C142.076 13.4795 142.403 13.5365 142.697 13.6505C142.994 13.7645 143.255 13.9295 143.48 14.1455L143.268 14.5595Z" fill="#AA8F66"/>
<circle cx="51.5" cy="67.5" r="15" stroke="black"/>
<circle cx="114.5" cy="67.5" r="15" stroke="black"/>
<circle cx="177.5" cy="67.5" r="15" stroke="black"/>
<line x1="33" y1="95.5" x2="70" y2="95.5" stroke="black"/>
<line x1="33" y1="103.5" x2="70" y2="103.5" stroke="black"/>
<line x1="33" y1="112.5" x2="70" y2="112.5" stroke="black"/>
<line x1="96" y1="95.5" x2="133" y2="95.5" stroke="black"/>
<line x1="96" y1="103.5" x2="133" y2="103.5" stroke="black"/>
<line x1="96" y1="112.5" x2="133" y2="112.5" stroke="black"/>
<line x1="158" y1="95.5" x2="195" y2="95.5" stroke="black"/>
<line x1="158" y1="103.5" x2="195" y2="103.5" stroke="black"/>
<line x1="158" y1="112.5" x2="195" y2="112.5" stroke="black"/>
</svg>
