<svg width="228" height="125" viewBox="0 0 228 125" fill="none" xmlns="http://www.w3.org/2000/svg">
<rect x="0.5" y="0.5" width="227" height="124" stroke="black"/>
<line x1="60" y1="45.5" x2="97" y2="45.5" stroke="black"/>
<line x1="60" y1="53.5" x2="97" y2="53.5" stroke="black"/>
<line x1="60" y1="62.5002" x2="97" y2="62.5002" stroke="black"/>
<line x1="60" y1="83.5002" x2="97" y2="83.5002" stroke="black"/>
<line x1="60" y1="91.5" x2="97" y2="91.5" stroke="black"/>
<line x1="60" y1="100.5" x2="97" y2="100.5" stroke="black"/>
<line x1="168" y1="83.5002" x2="205" y2="83.5002" stroke="black"/>
<line x1="168" y1="91.5" x2="205" y2="91.5" stroke="black"/>
<line x1="168" y1="100.5" x2="205" y2="100.5" stroke="black"/>
<line x1="168" y1="45.5" x2="205" y2="45.5" stroke="black"/>
<line x1="168" y1="53.5" x2="205" y2="53.5" stroke="black"/>
<line x1="168" y1="62.5002" x2="205" y2="62.5002" stroke="black"/>
<rect x="22.5" y="18.5" width="59" height="13" stroke="black"/>
<path d="M35.7815 24.778C35.7815 25.261 35.705 25.705 35.552 26.11C35.399 26.512 35.183 26.8585 34.904 27.1495C34.625 27.4405 34.289 27.667 33.896 27.829C33.506 27.988 33.074 28.0675 32.6 28.0675C32.126 28.0675 31.694 27.988 31.304 27.829C30.914 27.667 30.5795 27.4405 30.3005 27.1495C30.0215 26.8585 29.8055 26.512 29.6525 26.11C29.4995 25.705 29.423 25.261 29.423 24.778C29.423 24.295 29.4995 23.8525 29.6525 23.4505C29.8055 23.0455 30.0215 22.6975 30.3005 22.4065C30.5795 22.1125 30.914 21.8845 31.304 21.7225C31.694 21.5605 32.126 21.4795 32.6 21.4795C33.074 21.4795 33.506 21.5605 33.896 21.7225C34.289 21.8845 34.625 22.1125 34.904 22.4065C35.183 22.6975 35.399 23.0455 35.552 23.4505C35.705 23.8525 35.7815 24.295 35.7815 24.778ZM34.886 24.778C34.886 24.382 34.832 24.0265 34.724 23.7115C34.616 23.3965 34.463 23.131 34.265 22.915C34.067 22.696 33.827 22.528 33.545 22.411C33.263 22.294 32.948 22.2355 32.6 22.2355C32.255 22.2355 31.9415 22.294 31.6595 22.411C31.3775 22.528 31.136 22.696 30.935 22.915C30.737 23.131 30.584 23.3965 30.476 23.7115C30.368 24.0265 30.314 24.382 30.314 24.778C30.314 25.174 30.368 25.5295 30.476 25.8445C30.584 26.1565 30.737 26.422 30.935 26.641C31.136 26.857 31.3775 27.0235 31.6595 27.1405C31.9415 27.2545 32.255 27.3115 32.6 27.3115C32.948 27.3115 33.263 27.2545 33.545 27.1405C33.827 27.0235 34.067 26.857 34.265 26.641C34.463 26.422 34.616 26.1565 34.724 25.8445C34.832 25.5295 34.886 25.174 34.886 24.778ZM39.519 27.307C39.786 27.307 40.0245 27.262 40.2345 27.172C40.4445 27.082 40.6215 26.956 40.7655 26.794C40.9125 26.632 41.0235 26.4385 41.0985 26.2135C41.1765 25.9885 41.2155 25.741 41.2155 25.471V21.5515H42.084V25.471C42.084 25.843 42.024 26.188 41.904 26.506C41.787 26.824 41.6175 27.1 41.3955 27.334C41.1765 27.565 40.908 27.7465 40.59 27.8785C40.272 28.0105 39.915 28.0765 39.519 28.0765C39.123 28.0765 38.766 28.0105 38.448 27.8785C38.13 27.7465 37.86 27.565 37.638 27.334C37.416 27.1 37.245 26.824 37.125 26.506C37.008 26.188 36.9495 25.843 36.9495 25.471V21.5515H37.818V25.4665C37.818 25.7365 37.8555 25.984 37.9305 26.209C38.0085 26.434 38.1195 26.6275 38.2635 26.7895C38.4105 26.9515 38.589 27.079 38.799 27.172C39.012 27.262 39.252 27.307 39.519 27.307ZM45.4352 24.6745C45.6872 24.6745 45.9092 24.6445 46.1012 24.5845C46.2962 24.5215 46.4582 24.4345 46.5872 24.3235C46.7192 24.2095 46.8182 24.0745 46.8842 23.9185C46.9502 23.7625 46.9832 23.59 46.9832 23.401C46.9832 23.017 46.8572 22.7275 46.6052 22.5325C46.3532 22.3375 45.9752 22.24 45.4712 22.24H44.5172V24.6745H45.4352ZM48.4142 28H47.6402C47.4812 28 47.3642 27.9385 47.2892 27.8155L45.6152 25.5115C45.5642 25.4395 45.5087 25.3885 45.4487 25.3585C45.3917 25.3255 45.3017 25.309 45.1787 25.309H44.5172V28H43.6487V21.5515H45.4712C45.8792 21.5515 46.2317 21.5935 46.5287 21.6775C46.8257 21.7585 47.0702 21.877 47.2622 22.033C47.4572 22.189 47.6012 22.378 47.6942 22.6C47.7872 22.819 47.8337 23.065 47.8337 23.338C47.8337 23.566 47.7977 23.779 47.7257 23.977C47.6537 24.175 47.5487 24.3535 47.4107 24.5125C47.2757 24.6685 47.1092 24.802 46.9112 24.913C46.7162 25.024 46.4942 25.108 46.2452 25.165C46.3562 25.228 46.4522 25.3195 46.5332 25.4395L48.4142 28ZM55.682 22.285H53.594V28H52.7255V22.285H50.633V21.5515H55.682V22.285ZM60.6169 27.289L60.6124 28H56.6389V21.5515H60.6124V22.2625H57.5119V24.4045H60.0229V25.0885H57.5119V27.289H60.6169ZM65.2578 25.606L64.2453 22.9825C64.2153 22.9045 64.1838 22.8145 64.1508 22.7125C64.1178 22.6075 64.0863 22.4965 64.0563 22.3795C63.9933 22.6225 63.9288 22.825 63.8628 22.987L62.8503 25.606H65.2578ZM67.0758 28H66.4008C66.3228 28 66.2598 27.9805 66.2118 27.9415C66.1638 27.9025 66.1278 27.853 66.1038 27.793L65.5008 26.236H62.6073L62.0043 27.793C61.9863 27.847 61.9518 27.895 61.9008 27.937C61.8498 27.979 61.7868 28 61.7118 28H61.0368L63.6153 21.5515H64.4973L67.0758 28ZM74.6336 21.5515V28H73.8686V23.2615C73.8686 23.1985 73.8701 23.131 73.8731 23.059C73.8791 22.987 73.8851 22.9135 73.8911 22.8385L71.6771 26.8705C71.6081 27.0055 71.5031 27.073 71.3621 27.073H71.2361C71.0951 27.073 70.9901 27.0055 70.9211 26.8705L68.6621 22.8205C68.6801 22.9795 68.6891 23.1265 68.6891 23.2615V28H67.9241V21.5515H68.5676C68.6456 21.5515 68.7056 21.559 68.7476 21.574C68.7896 21.589 68.8301 21.631 68.8691 21.7L71.0966 25.669C71.1326 25.741 71.1671 25.816 71.2001 25.894C71.2361 25.972 71.2691 26.0515 71.2991 26.1325C71.3291 26.0515 71.3606 25.972 71.3936 25.894C71.4266 25.813 71.4626 25.7365 71.5016 25.6645L73.6886 21.7C73.7246 21.631 73.7636 21.589 73.8056 21.574C73.8506 21.559 73.9121 21.5515 73.9901 21.5515H74.6336Z" fill="#AA8F66"/>
<rect x="26.5" y="41.5" width="27" height="26" stroke="black"/>
<rect x="127.5" y="41.5" width="27" height="26" stroke="black"/>
<rect x="127.5" y="79.4998" width="27" height="26" stroke="black"/>
<rect x="26.5" y="79.4998" width="27" height="26" stroke="black"/>
<path d="M44 54C45.4987 56.7083 48.0986 63.6 46.5 67.5" stroke="#AA8F66"/>
<circle cx="40" cy="52" r="4.5" stroke="#AA8F66"/>
<path d="M35.9999 54C32.4781 63.5333 32.913 67.1389 33.5 67.5" stroke="#AA8F66"/>
<path d="M144.897 54C146.396 56.7083 148.996 63.6 147.397 67.5" stroke="#AA8F66"/>
<circle cx="140.897" cy="52" r="4.5" stroke="#AA8F66"/>
<path d="M136.897 54C133.376 63.5333 133.811 67.1389 134.397 67.5" stroke="#AA8F66"/>
<path d="M144.897 91.9998C146.396 94.7081 148.996 101.6 147.397 105.5" stroke="#AA8F66"/>
<circle cx="140.897" cy="90" r="4.5" stroke="#AA8F66"/>
<path d="M136.897 91.9998C133.376 101.533 133.811 105.139 134.397 105.5" stroke="#AA8F66"/>
<path d="M43.8975 91.9998C45.3962 94.7081 47.9961 101.6 46.3975 105.5" stroke="#AA8F66"/>
<circle cx="39.8975" cy="90" r="4.5" stroke="#AA8F66"/>
<path d="M35.8973 91.9998C32.3756 101.533 32.8105 105.139 33.3975 105.5" stroke="#AA8F66"/>
</svg>
