<svg width="228" height="125" viewBox="0 0 228 125" fill="none" xmlns="http://www.w3.org/2000/svg">
<rect x="0.5" y="0.5" width="227" height="124" stroke="black"/>
<rect x="68.5" y="9.5" width="87" height="13" stroke="black"/>
<path d="M82.7815 15.778C82.7815 16.261 82.705 16.705 82.552 17.11C82.399 17.512 82.183 17.8585 81.904 18.1495C81.625 18.4405 81.289 18.667 80.896 18.829C80.506 18.988 80.074 19.0675 79.6 19.0675C79.126 19.0675 78.694 18.988 78.304 18.829C77.914 18.667 77.5795 18.4405 77.3005 18.1495C77.0215 17.8585 76.8055 17.512 76.6525 17.11C76.4995 16.705 76.423 16.261 76.423 15.778C76.423 15.295 76.4995 14.8525 76.6525 14.4505C76.8055 14.0455 77.0215 13.6975 77.3005 13.4065C77.5795 13.1125 77.914 12.8845 78.304 12.7225C78.694 12.5605 79.126 12.4795 79.6 12.4795C80.074 12.4795 80.506 12.5605 80.896 12.7225C81.289 12.8845 81.625 13.1125 81.904 13.4065C82.183 13.6975 82.399 14.0455 82.552 14.4505C82.705 14.8525 82.7815 15.295 82.7815 15.778ZM81.886 15.778C81.886 15.382 81.832 15.0265 81.724 14.7115C81.616 14.3965 81.463 14.131 81.265 13.915C81.067 13.696 80.827 13.528 80.545 13.411C80.263 13.294 79.948 13.2355 79.6 13.2355C79.255 13.2355 78.9415 13.294 78.6595 13.411C78.3775 13.528 78.136 13.696 77.935 13.915C77.737 14.131 77.584 14.3965 77.476 14.7115C77.368 15.0265 77.314 15.382 77.314 15.778C77.314 16.174 77.368 16.5295 77.476 16.8445C77.584 17.1565 77.737 17.422 77.935 17.641C78.136 17.857 78.3775 18.0235 78.6595 18.1405C78.9415 18.2545 79.255 18.3115 79.6 18.3115C79.948 18.3115 80.263 18.2545 80.545 18.1405C80.827 18.0235 81.067 17.857 81.265 17.641C81.463 17.422 81.616 17.1565 81.724 16.8445C81.832 16.5295 81.886 16.174 81.886 15.778ZM86.519 18.307C86.786 18.307 87.0245 18.262 87.2345 18.172C87.4445 18.082 87.6215 17.956 87.7655 17.794C87.9125 17.632 88.0235 17.4385 88.0985 17.2135C88.1765 16.9885 88.2155 16.741 88.2155 16.471V12.5515H89.084V16.471C89.084 16.843 89.024 17.188 88.904 17.506C88.787 17.824 88.6175 18.1 88.3955 18.334C88.1765 18.565 87.908 18.7465 87.59 18.8785C87.272 19.0105 86.915 19.0765 86.519 19.0765C86.123 19.0765 85.766 19.0105 85.448 18.8785C85.13 18.7465 84.86 18.565 84.638 18.334C84.416 18.1 84.245 17.824 84.125 17.506C84.008 17.188 83.9495 16.843 83.9495 16.471V12.5515H84.818V16.4665C84.818 16.7365 84.8555 16.984 84.9305 17.209C85.0085 17.434 85.1195 17.6275 85.2635 17.7895C85.4105 17.9515 85.589 18.079 85.799 18.172C86.012 18.262 86.252 18.307 86.519 18.307ZM92.4352 15.6745C92.6872 15.6745 92.9092 15.6445 93.1012 15.5845C93.2962 15.5215 93.4582 15.4345 93.5872 15.3235C93.7192 15.2095 93.8182 15.0745 93.8842 14.9185C93.9502 14.7625 93.9832 14.59 93.9832 14.401C93.9832 14.017 93.8572 13.7275 93.6052 13.5325C93.3532 13.3375 92.9752 13.24 92.4712 13.24H91.5172V15.6745H92.4352ZM95.4142 19H94.6402C94.4812 19 94.3642 18.9385 94.2892 18.8155L92.6152 16.5115C92.5642 16.4395 92.5087 16.3885 92.4487 16.3585C92.3917 16.3255 92.3017 16.309 92.1787 16.309H91.5172V19H90.6487V12.5515H92.4712C92.8792 12.5515 93.2317 12.5935 93.5287 12.6775C93.8257 12.7585 94.0702 12.877 94.2622 13.033C94.4572 13.189 94.6012 13.378 94.6942 13.6C94.7872 13.819 94.8337 14.065 94.8337 14.338C94.8337 14.566 94.7977 14.779 94.7257 14.977C94.6537 15.175 94.5487 15.3535 94.4107 15.5125C94.2757 15.6685 94.1092 15.802 93.9112 15.913C93.7162 16.024 93.4942 16.108 93.2452 16.165C93.3562 16.228 93.4522 16.3195 93.5332 16.4395L95.4142 19ZM100.498 15.895C100.747 15.895 100.966 15.862 101.155 15.796C101.347 15.73 101.507 15.6385 101.636 15.5215C101.768 15.4015 101.867 15.259 101.933 15.094C101.999 14.929 102.032 14.7475 102.032 14.5495C102.032 14.1385 101.905 13.8175 101.65 13.5865C101.398 13.3555 101.014 13.24 100.498 13.24H99.4625V15.895H100.498ZM100.498 12.5515C100.906 12.5515 101.26 12.5995 101.56 12.6955C101.863 12.7885 102.113 12.922 102.311 13.096C102.509 13.27 102.656 13.48 102.752 13.726C102.851 13.972 102.901 14.2465 102.901 14.5495C102.901 14.8495 102.848 15.124 102.743 15.373C102.638 15.622 102.484 15.8365 102.28 16.0165C102.079 16.1965 101.828 16.3375 101.528 16.4395C101.231 16.5385 100.888 16.588 100.498 16.588H99.4625V19H98.594V12.5515H100.498ZM109.957 15.778C109.957 16.261 109.881 16.705 109.728 17.11C109.575 17.512 109.359 17.8585 109.08 18.1495C108.801 18.4405 108.465 18.667 108.072 18.829C107.682 18.988 107.25 19.0675 106.776 19.0675C106.302 19.0675 105.87 18.988 105.48 18.829C105.09 18.667 104.755 18.4405 104.476 18.1495C104.197 17.8585 103.981 17.512 103.828 17.11C103.675 16.705 103.599 16.261 103.599 15.778C103.599 15.295 103.675 14.8525 103.828 14.4505C103.981 14.0455 104.197 13.6975 104.476 13.4065C104.755 13.1125 105.09 12.8845 105.48 12.7225C105.87 12.5605 106.302 12.4795 106.776 12.4795C107.25 12.4795 107.682 12.5605 108.072 12.7225C108.465 12.8845 108.801 13.1125 109.08 13.4065C109.359 13.6975 109.575 14.0455 109.728 14.4505C109.881 14.8525 109.957 15.295 109.957 15.778ZM109.062 15.778C109.062 15.382 109.008 15.0265 108.9 14.7115C108.792 14.3965 108.639 14.131 108.441 13.915C108.243 13.696 108.003 13.528 107.721 13.411C107.439 13.294 107.124 13.2355 106.776 13.2355C106.431 13.2355 106.117 13.294 105.835 13.411C105.553 13.528 105.312 13.696 105.111 13.915C104.913 14.131 104.76 14.3965 104.652 14.7115C104.544 15.0265 104.49 15.382 104.49 15.778C104.49 16.174 104.544 16.5295 104.652 16.8445C104.76 17.1565 104.913 17.422 105.111 17.641C105.312 17.857 105.553 18.0235 105.835 18.1405C106.117 18.2545 106.431 18.3115 106.776 18.3115C107.124 18.3115 107.439 18.2545 107.721 18.1405C108.003 18.0235 108.243 17.857 108.441 17.641C108.639 17.422 108.792 17.1565 108.9 16.8445C109.008 16.5295 109.062 16.174 109.062 15.778ZM112.993 15.6745C113.245 15.6745 113.467 15.6445 113.659 15.5845C113.854 15.5215 114.016 15.4345 114.145 15.3235C114.277 15.2095 114.376 15.0745 114.442 14.9185C114.508 14.7625 114.541 14.59 114.541 14.401C114.541 14.017 114.415 13.7275 114.163 13.5325C113.911 13.3375 113.533 13.24 113.029 13.24H112.075V15.6745H112.993ZM115.972 19H115.198C115.039 19 114.922 18.9385 114.847 18.8155L113.173 16.5115C113.122 16.4395 113.066 16.3885 113.006 16.3585C112.949 16.3255 112.859 16.309 112.736 16.309H112.075V19H111.206V12.5515H113.029C113.437 12.5515 113.789 12.5935 114.086 12.6775C114.383 12.7585 114.628 12.877 114.82 13.033C115.015 13.189 115.159 13.378 115.252 13.6C115.345 13.819 115.391 14.065 115.391 14.338C115.391 14.566 115.355 14.779 115.283 14.977C115.211 15.175 115.106 15.3535 114.968 15.5125C114.833 15.6685 114.667 15.802 114.469 15.913C114.274 16.024 114.052 16.108 113.803 16.165C113.914 16.228 114.01 16.3195 114.091 16.4395L115.972 19ZM120.998 13.285H118.91V19H118.042V13.285H115.949V12.5515H120.998V13.285ZM122.828 13.2625V15.517H125.479V16.228H122.828V19H121.955V12.5515H125.929V13.2625H122.828ZM132.941 15.778C132.941 16.261 132.864 16.705 132.711 17.11C132.558 17.512 132.342 17.8585 132.063 18.1495C131.784 18.4405 131.448 18.667 131.055 18.829C130.665 18.988 130.233 19.0675 129.759 19.0675C129.285 19.0675 128.853 18.988 128.463 18.829C128.073 18.667 127.739 18.4405 127.46 18.1495C127.181 17.8585 126.965 17.512 126.812 17.11C126.659 16.705 126.582 16.261 126.582 15.778C126.582 15.295 126.659 14.8525 126.812 14.4505C126.965 14.0455 127.181 13.6975 127.46 13.4065C127.739 13.1125 128.073 12.8845 128.463 12.7225C128.853 12.5605 129.285 12.4795 129.759 12.4795C130.233 12.4795 130.665 12.5605 131.055 12.7225C131.448 12.8845 131.784 13.1125 132.063 13.4065C132.342 13.6975 132.558 14.0455 132.711 14.4505C132.864 14.8525 132.941 15.295 132.941 15.778ZM132.045 15.778C132.045 15.382 131.991 15.0265 131.883 14.7115C131.775 14.3965 131.622 14.131 131.424 13.915C131.226 13.696 130.986 13.528 130.704 13.411C130.422 13.294 130.107 13.2355 129.759 13.2355C129.414 13.2355 129.101 13.294 128.819 13.411C128.537 13.528 128.295 13.696 128.094 13.915C127.896 14.131 127.743 14.3965 127.635 14.7115C127.527 15.0265 127.473 15.382 127.473 15.778C127.473 16.174 127.527 16.5295 127.635 16.8445C127.743 17.1565 127.896 17.422 128.094 17.641C128.295 17.857 128.537 18.0235 128.819 18.1405C129.101 18.2545 129.414 18.3115 129.759 18.3115C130.107 18.3115 130.422 18.2545 130.704 18.1405C130.986 18.0235 131.226 17.857 131.424 17.641C131.622 17.422 131.775 17.1565 131.883 16.8445C131.991 16.5295 132.045 16.174 132.045 15.778ZM137.848 18.2665V19H134.19V12.5515H135.058V18.2665H137.848ZM139.686 19H138.813V12.5515H139.686V19ZM147.293 15.778C147.293 16.261 147.217 16.705 147.064 17.11C146.911 17.512 146.695 17.8585 146.416 18.1495C146.137 18.4405 145.801 18.667 145.408 18.829C145.018 18.988 144.586 19.0675 144.112 19.0675C143.638 19.0675 143.206 18.988 142.816 18.829C142.426 18.667 142.091 18.4405 141.812 18.1495C141.533 17.8585 141.317 17.512 141.164 17.11C141.011 16.705 140.935 16.261 140.935 15.778C140.935 15.295 141.011 14.8525 141.164 14.4505C141.317 14.0455 141.533 13.6975 141.812 13.4065C142.091 13.1125 142.426 12.8845 142.816 12.7225C143.206 12.5605 143.638 12.4795 144.112 12.4795C144.586 12.4795 145.018 12.5605 145.408 12.7225C145.801 12.8845 146.137 13.1125 146.416 13.4065C146.695 13.6975 146.911 14.0455 147.064 14.4505C147.217 14.8525 147.293 15.295 147.293 15.778ZM146.398 15.778C146.398 15.382 146.344 15.0265 146.236 14.7115C146.128 14.3965 145.975 14.131 145.777 13.915C145.579 13.696 145.339 13.528 145.057 13.411C144.775 13.294 144.46 13.2355 144.112 13.2355C143.767 13.2355 143.453 13.294 143.171 13.411C142.889 13.528 142.648 13.696 142.447 13.915C142.249 14.131 142.096 14.3965 141.988 14.7115C141.88 15.0265 141.826 15.382 141.826 15.778C141.826 16.174 141.88 16.5295 141.988 16.8445C142.096 17.1565 142.249 17.422 142.447 17.641C142.648 17.857 142.889 18.0235 143.171 18.1405C143.453 18.2545 143.767 18.3115 144.112 18.3115C144.46 18.3115 144.775 18.2545 145.057 18.1405C145.339 18.0235 145.579 17.857 145.777 17.641C145.975 17.422 146.128 17.1565 146.236 16.8445C146.344 16.5295 146.398 16.174 146.398 15.778Z" fill="#AA8F66"/>
<line x1="47.0037" y1="29.5" x2="182.004" y2="30.5075" stroke="black"/>
<rect x="20.5" y="41.5" width="53" height="30" stroke="black"/>
<line x1="20.6464" y1="55.6464" x2="34.6464" y2="41.6464" stroke="black"/>
<line x1="58.6588" y1="71.6345" x2="73.6588" y2="57.6345" stroke="black"/>
<rect x="85.5" y="41.5" width="53" height="30" stroke="black"/>
<line x1="85.6464" y1="55.6464" x2="99.6464" y2="41.6464" stroke="black"/>
<line x1="123.659" y1="71.6345" x2="138.659" y2="57.6345" stroke="black"/>
<rect x="152.5" y="41.5" width="53" height="30" stroke="black"/>
<line x1="152.646" y1="55.6464" x2="166.646" y2="41.6464" stroke="black"/>
<line x1="190.659" y1="71.6345" x2="205.659" y2="57.6345" stroke="black"/>
<rect x="153.5" y="82.5" width="53" height="30" stroke="black"/>
<line x1="153.646" y1="96.6464" x2="167.646" y2="82.6464" stroke="black"/>
<line x1="191.659" y1="112.634" x2="206.659" y2="98.6345" stroke="black"/>
<rect x="86.5" y="82.5" width="53" height="30" stroke="black"/>
<line x1="86.6464" y1="96.6464" x2="100.646" y2="82.6464" stroke="black"/>
<line x1="124.659" y1="112.634" x2="139.659" y2="98.6345" stroke="black"/>
<rect x="19.5" y="82.5" width="53" height="30" stroke="black"/>
<line x1="19.6464" y1="96.6464" x2="33.6464" y2="82.6464" stroke="black"/>
<line x1="57.6588" y1="112.634" x2="72.6588" y2="98.6345" stroke="black"/>
</svg>
