<svg width="228" height="125" viewBox="0 0 228 125" fill="none" xmlns="http://www.w3.org/2000/svg">
<rect x="0.5" y="0.5" width="227" height="124" stroke="black"/>
<rect x="11.5" y="17.5" width="94" height="12" stroke="black"/>
<rect x="11.5" y="38.5" width="94" height="12" stroke="black"/>
<rect x="11.5" y="60.5" width="94" height="50" stroke="black"/>
<path d="M36.3505 24.668C36.3985 24.668 36.4405 24.6875 36.4765 24.7265L36.823 25.1C36.559 25.406 36.238 25.6445 35.86 25.8155C35.485 25.9865 35.0305 26.072 34.4965 26.072C34.0345 26.072 33.6145 25.9925 33.2365 25.8335C32.8585 25.6715 32.536 25.4465 32.269 25.1585C32.002 24.8675 31.795 24.5195 31.648 24.1145C31.501 23.7095 31.4275 23.264 31.4275 22.778C31.4275 22.292 31.504 21.8465 31.657 21.4415C31.81 21.0365 32.0245 20.6885 32.3005 20.3975C32.5795 20.1065 32.9125 19.8815 33.2995 19.7225C33.6865 19.5605 34.114 19.4795 34.582 19.4795C35.041 19.4795 35.446 19.553 35.797 19.7C36.148 19.847 36.457 20.0465 36.724 20.2985L36.436 20.699C36.418 20.729 36.394 20.7545 36.364 20.7755C36.337 20.7935 36.2995 20.8025 36.2515 20.8025C36.1975 20.8025 36.1315 20.774 36.0535 20.717C35.9755 20.657 35.8735 20.591 35.7475 20.519C35.6215 20.447 35.464 20.3825 35.275 20.3255C35.086 20.2655 34.8535 20.2355 34.5775 20.2355C34.2445 20.2355 33.94 20.294 33.664 20.411C33.388 20.525 33.1495 20.6915 32.9485 20.9105C32.7505 21.1295 32.596 21.3965 32.485 21.7115C32.374 22.0265 32.3185 22.382 32.3185 22.778C32.3185 23.18 32.3755 23.5385 32.4895 23.8535C32.6065 24.1685 32.764 24.4355 32.962 24.6545C33.163 24.8705 33.3985 25.0355 33.6685 25.1495C33.9415 25.2635 34.2355 25.3205 34.5505 25.3205C34.7425 25.3205 34.915 25.31 35.068 25.289C35.224 25.265 35.3665 25.229 35.4955 25.181C35.6275 25.133 35.749 25.073 35.86 25.001C35.974 24.926 36.0865 24.8375 36.1975 24.7355C36.2485 24.6905 36.2995 24.668 36.3505 24.668ZM43.6702 22.778C43.6702 23.261 43.5937 23.705 43.4407 24.11C43.2877 24.512 43.0717 24.8585 42.7927 25.1495C42.5137 25.4405 42.1777 25.667 41.7847 25.829C41.3947 25.988 40.9627 26.0675 40.4887 26.0675C40.0147 26.0675 39.5827 25.988 39.1927 25.829C38.8027 25.667 38.4682 25.4405 38.1892 25.1495C37.9102 24.8585 37.6942 24.512 37.5412 24.11C37.3882 23.705 37.3117 23.261 37.3117 22.778C37.3117 22.295 37.3882 21.8525 37.5412 21.4505C37.6942 21.0455 37.9102 20.6975 38.1892 20.4065C38.4682 20.1125 38.8027 19.8845 39.1927 19.7225C39.5827 19.5605 40.0147 19.4795 40.4887 19.4795C40.9627 19.4795 41.3947 19.5605 41.7847 19.7225C42.1777 19.8845 42.5137 20.1125 42.7927 20.4065C43.0717 20.6975 43.2877 21.0455 43.4407 21.4505C43.5937 21.8525 43.6702 22.295 43.6702 22.778ZM42.7747 22.778C42.7747 22.382 42.7207 22.0265 42.6127 21.7115C42.5047 21.3965 42.3517 21.131 42.1537 20.915C41.9557 20.696 41.7157 20.528 41.4337 20.411C41.1517 20.294 40.8367 20.2355 40.4887 20.2355C40.1437 20.2355 39.8302 20.294 39.5482 20.411C39.2662 20.528 39.0247 20.696 38.8237 20.915C38.6257 21.131 38.4727 21.3965 38.3647 21.7115C38.2567 22.0265 38.2027 22.382 38.2027 22.778C38.2027 23.174 38.2567 23.5295 38.3647 23.8445C38.4727 24.1565 38.6257 24.422 38.8237 24.641C39.0247 24.857 39.2662 25.0235 39.5482 25.1405C39.8302 25.2545 40.1437 25.3115 40.4887 25.3115C40.8367 25.3115 41.1517 25.2545 41.4337 25.1405C41.7157 25.0235 41.9557 24.857 42.1537 24.641C42.3517 24.422 42.5047 24.1565 42.6127 23.8445C42.7207 23.5295 42.7747 23.174 42.7747 22.778ZM50.1437 19.5515V26H49.7072C49.6382 26 49.5797 25.988 49.5317 25.964C49.4867 25.94 49.4417 25.8995 49.3967 25.8425L45.6662 20.9825C45.6722 21.0575 45.6767 21.131 45.6797 21.203C45.6827 21.275 45.6842 21.3425 45.6842 21.4055V26H44.9192V19.5515H45.3692C45.4082 19.5515 45.4412 19.5545 45.4682 19.5605C45.4952 19.5635 45.5192 19.571 45.5402 19.583C45.5612 19.592 45.5822 19.607 45.6032 19.628C45.6242 19.646 45.6467 19.67 45.6707 19.7L49.4012 24.5555C49.3952 24.4775 49.3892 24.4025 49.3832 24.3305C49.3802 24.2555 49.3787 24.185 49.3787 24.119V19.5515H50.1437ZM56.1528 20.285H54.0648V26H53.1963V20.285H51.1038V19.5515H56.1528V20.285ZM59.9013 23.606L58.8888 20.9825C58.8588 20.9045 58.8273 20.8145 58.7943 20.7125C58.7613 20.6075 58.7298 20.4965 58.6998 20.3795C58.6368 20.6225 58.5723 20.825 58.5063 20.987L57.4938 23.606H59.9013ZM61.7193 26H61.0443C60.9663 26 60.9033 25.9805 60.8553 25.9415C60.8073 25.9025 60.7713 25.853 60.7473 25.793L60.1443 24.236H57.2508L56.6478 25.793C56.6298 25.847 56.5953 25.895 56.5443 25.937C56.4933 25.979 56.4303 26 56.3553 26H55.6803L58.2588 19.5515H59.1408L61.7193 26ZM66.9276 24.668C66.9756 24.668 67.0176 24.6875 67.0536 24.7265L67.4001 25.1C67.1361 25.406 66.8151 25.6445 66.4371 25.8155C66.0621 25.9865 65.6076 26.072 65.0736 26.072C64.6116 26.072 64.1916 25.9925 63.8136 25.8335C63.4356 25.6715 63.1131 25.4465 62.8461 25.1585C62.5791 24.8675 62.3721 24.5195 62.2251 24.1145C62.0781 23.7095 62.0046 23.264 62.0046 22.778C62.0046 22.292 62.0811 21.8465 62.2341 21.4415C62.3871 21.0365 62.6016 20.6885 62.8776 20.3975C63.1566 20.1065 63.4896 19.8815 63.8766 19.7225C64.2636 19.5605 64.6911 19.4795 65.1591 19.4795C65.6181 19.4795 66.0231 19.553 66.3741 19.7C66.7251 19.847 67.0341 20.0465 67.3011 20.2985L67.0131 20.699C66.9951 20.729 66.9711 20.7545 66.9411 20.7755C66.9141 20.7935 66.8766 20.8025 66.8286 20.8025C66.7746 20.8025 66.7086 20.774 66.6306 20.717C66.5526 20.657 66.4506 20.591 66.3246 20.519C66.1986 20.447 66.0411 20.3825 65.8521 20.3255C65.6631 20.2655 65.4306 20.2355 65.1546 20.2355C64.8216 20.2355 64.5171 20.294 64.2411 20.411C63.9651 20.525 63.7266 20.6915 63.5256 20.9105C63.3276 21.1295 63.1731 21.3965 63.0621 21.7115C62.9511 22.0265 62.8956 22.382 62.8956 22.778C62.8956 23.18 62.9526 23.5385 63.0666 23.8535C63.1836 24.1685 63.3411 24.4355 63.5391 24.6545C63.7401 24.8705 63.9756 25.0355 64.2456 25.1495C64.5186 25.2635 64.8126 25.3205 65.1276 25.3205C65.3196 25.3205 65.4921 25.31 65.6451 25.289C65.8011 25.265 65.9436 25.229 66.0726 25.181C66.2046 25.133 66.3261 25.073 66.4371 25.001C66.5511 24.926 66.6636 24.8375 66.7746 24.7355C66.8256 24.6905 66.8766 24.668 66.9276 24.668ZM72.7729 20.285H70.6849V26H69.8164V20.285H67.7239V19.5515H72.7729V20.285ZM78.2485 25.307C78.5155 25.307 78.754 25.262 78.964 25.172C79.174 25.082 79.351 24.956 79.495 24.794C79.642 24.632 79.753 24.4385 79.828 24.2135C79.906 23.9885 79.945 23.741 79.945 23.471V19.5515H80.8135V23.471C80.8135 23.843 80.7535 24.188 80.6335 24.506C80.5165 24.824 80.347 25.1 80.125 25.334C79.906 25.565 79.6375 25.7465 79.3195 25.8785C79.0015 26.0105 78.6445 26.0765 78.2485 26.0765C77.8525 26.0765 77.4955 26.0105 77.1775 25.8785C76.8595 25.7465 76.5895 25.565 76.3675 25.334C76.1455 25.1 75.9745 24.824 75.8545 24.506C75.7375 24.188 75.679 23.843 75.679 23.471V19.5515H76.5475V23.4665C76.5475 23.7365 76.585 23.984 76.66 24.209C76.738 24.434 76.849 24.6275 76.993 24.7895C77.14 24.9515 77.3185 25.079 77.5285 25.172C77.7415 25.262 77.9815 25.307 78.2485 25.307ZM85.6767 20.5595C85.6497 20.6045 85.6197 20.639 85.5867 20.663C85.5567 20.684 85.5192 20.6945 85.4742 20.6945C85.4232 20.6945 85.3632 20.669 85.2942 20.618C85.2252 20.567 85.1382 20.5115 85.0332 20.4515C84.9312 20.3885 84.8067 20.3315 84.6597 20.2805C84.5157 20.2295 84.3402 20.204 84.1332 20.204C83.9382 20.204 83.7657 20.231 83.6157 20.285C83.4687 20.336 83.3442 20.4065 83.2422 20.4965C83.1432 20.5865 83.0682 20.693 83.0172 20.816C82.9662 20.936 82.9407 21.0665 82.9407 21.2075C82.9407 21.3875 82.9842 21.5375 83.0712 21.6575C83.1612 21.7745 83.2782 21.875 83.4222 21.959C83.5692 22.043 83.7342 22.1165 83.9172 22.1795C84.1032 22.2395 84.2922 22.3025 84.4842 22.3685C84.6792 22.4345 84.8682 22.5095 85.0512 22.5935C85.2372 22.6745 85.4022 22.778 85.5462 22.904C85.6932 23.03 85.8102 23.1845 85.8972 23.3675C85.9872 23.5505 86.0322 23.7755 86.0322 24.0425C86.0322 24.3245 85.9842 24.59 85.8882 24.839C85.7922 25.085 85.6512 25.2995 85.4652 25.4825C85.2822 25.6655 85.0557 25.8095 84.7857 25.9145C84.5187 26.0195 84.2142 26.072 83.8722 26.072C83.4522 26.072 83.0712 25.997 82.7292 25.847C82.3872 25.694 82.0947 25.4885 81.8517 25.2305L82.1037 24.8165C82.1277 24.7835 82.1562 24.7565 82.1892 24.7355C82.2252 24.7115 82.2642 24.6995 82.3062 24.6995C82.3452 24.6995 82.3887 24.716 82.4367 24.749C82.4877 24.779 82.5447 24.818 82.6077 24.866C82.6707 24.914 82.7427 24.9665 82.8237 25.0235C82.9047 25.0805 82.9962 25.133 83.0982 25.181C83.2032 25.229 83.3217 25.2695 83.4537 25.3025C83.5857 25.3325 83.7342 25.3475 83.8992 25.3475C84.1062 25.3475 84.2907 25.319 84.4527 25.262C84.6147 25.205 84.7512 25.1255 84.8622 25.0235C84.9762 24.9185 85.0632 24.794 85.1232 24.65C85.1832 24.506 85.2132 24.3455 85.2132 24.1685C85.2132 23.9735 85.1682 23.8145 85.0782 23.6915C84.9912 23.5655 84.8757 23.4605 84.7317 23.3765C84.5877 23.2925 84.4227 23.222 84.2367 23.165C84.0507 23.105 83.8617 23.045 83.6697 22.985C83.4777 22.922 83.2887 22.85 83.1027 22.769C82.9167 22.688 82.7517 22.583 82.6077 22.454C82.4637 22.325 82.3467 22.1645 82.2567 21.9725C82.1697 21.7775 82.1262 21.5375 82.1262 21.2525C82.1262 21.0245 82.1697 20.804 82.2567 20.591C82.3467 20.378 82.4757 20.189 82.6437 20.024C82.8147 19.859 83.0232 19.727 83.2692 19.628C83.5182 19.529 83.8032 19.4795 84.1242 19.4795C84.4842 19.4795 84.8112 19.5365 85.1052 19.6505C85.4022 19.7645 85.6632 19.9295 85.8882 20.1455L85.6767 20.5595Z" fill="#AA8F66"/>
<line x1="119" y1="46.5" x2="197" y2="46.5" stroke="black"/>
<line x1="119" y1="54.5" x2="197" y2="54.513" stroke="black"/>
<line x1="119" y1="61.5" x2="197" y2="61.5" stroke="black"/>
<rect x="118.5" y="72.5" width="13" height="14" stroke="black"/>
<rect x="141.5" y="72.5" width="13" height="14" stroke="black"/>
<rect x="165.5" y="72.5" width="13" height="14" stroke="black"/>
<path d="M123.932 83V79.1255L123.428 79.067C123.365 79.052 123.312 79.0295 123.27 78.9995C123.231 78.9665 123.212 78.92 123.212 78.86V78.5315H123.932V78.0905C123.932 77.8295 123.968 77.5985 124.04 77.3975C124.115 77.1935 124.22 77.0225 124.355 76.8845C124.493 76.7435 124.658 76.637 124.85 76.565C125.042 76.493 125.258 76.457 125.498 76.457C125.702 76.457 125.889 76.487 126.06 76.547L126.042 76.9475C126.036 77.0195 125.996 77.0585 125.921 77.0645C125.849 77.0705 125.751 77.0735 125.628 77.0735C125.49 77.0735 125.364 77.0915 125.25 77.1275C125.139 77.1635 125.043 77.222 124.962 77.303C124.881 77.384 124.818 77.4905 124.773 77.6225C124.731 77.7545 124.71 77.918 124.71 78.113V78.5315H126.024V79.112H124.737V83H123.932Z" fill="black"/>
<path d="M149.034 83.072C148.674 83.072 148.397 82.9715 148.202 82.7705C148.01 82.5695 147.914 82.28 147.914 81.902V79.112H147.365C147.317 79.112 147.276 79.0985 147.243 79.0715C147.21 79.0415 147.194 78.9965 147.194 78.9365V78.617L147.941 78.5225L148.125 77.114C148.134 77.069 148.154 77.033 148.184 77.006C148.217 76.976 148.259 76.961 148.31 76.961H148.715V78.5315H150.033V79.112H148.715V81.848C148.715 82.04 148.761 82.1825 148.854 82.2755C148.947 82.3685 149.067 82.415 149.214 82.415C149.298 82.415 149.37 82.4045 149.43 82.3835C149.493 82.3595 149.547 82.334 149.592 82.307C149.637 82.28 149.675 82.256 149.705 82.235C149.738 82.211 149.766 82.199 149.79 82.199C149.832 82.199 149.87 82.2245 149.903 82.2755L150.137 82.658C149.999 82.787 149.832 82.889 149.637 82.964C149.442 83.036 149.241 83.072 149.034 83.072Z" fill="black"/>
<rect x="117.5" y="97.5" width="65" height="12" stroke="black"/>
<path d="M142.122 101.559C142.095 101.604 142.065 101.639 142.032 101.663C142.002 101.684 141.965 101.694 141.92 101.694C141.869 101.694 141.809 101.669 141.74 101.618C141.671 101.567 141.584 101.511 141.479 101.451C141.377 101.388 141.252 101.331 141.105 101.28C140.961 101.229 140.786 101.204 140.579 101.204C140.384 101.204 140.211 101.231 140.061 101.285C139.914 101.336 139.79 101.406 139.688 101.496C139.589 101.586 139.514 101.693 139.463 101.816C139.412 101.936 139.386 102.066 139.386 102.207C139.386 102.387 139.43 102.537 139.517 102.657C139.607 102.774 139.724 102.875 139.868 102.959C140.015 103.043 140.18 103.116 140.363 103.179C140.549 103.239 140.738 103.302 140.93 103.368C141.125 103.434 141.314 103.509 141.497 103.593C141.683 103.674 141.848 103.778 141.992 103.904C142.139 104.03 142.256 104.184 142.343 104.367C142.433 104.55 142.478 104.775 142.478 105.042C142.478 105.324 142.43 105.59 142.334 105.839C142.238 106.085 142.097 106.299 141.911 106.482C141.728 106.665 141.501 106.809 141.231 106.914C140.964 107.02 140.66 107.072 140.318 107.072C139.898 107.072 139.517 106.997 139.175 106.847C138.833 106.694 138.54 106.488 138.297 106.23L138.549 105.816C138.573 105.783 138.602 105.756 138.635 105.735C138.671 105.711 138.71 105.699 138.752 105.699C138.791 105.699 138.834 105.716 138.882 105.749C138.933 105.779 138.99 105.818 139.053 105.866C139.116 105.914 139.188 105.966 139.269 106.023C139.35 106.08 139.442 106.133 139.544 106.181C139.649 106.229 139.767 106.269 139.899 106.302C140.031 106.332 140.18 106.347 140.345 106.347C140.552 106.347 140.736 106.319 140.898 106.262C141.06 106.205 141.197 106.125 141.308 106.023C141.422 105.918 141.509 105.794 141.569 105.65C141.629 105.506 141.659 105.345 141.659 105.168C141.659 104.973 141.614 104.814 141.524 104.691C141.437 104.565 141.321 104.46 141.177 104.376C141.033 104.292 140.868 104.222 140.682 104.165C140.496 104.105 140.307 104.045 140.115 103.985C139.923 103.922 139.734 103.85 139.548 103.769C139.362 103.688 139.197 103.583 139.053 103.454C138.909 103.325 138.792 103.164 138.702 102.972C138.615 102.777 138.572 102.537 138.572 102.252C138.572 102.024 138.615 101.804 138.702 101.591C138.792 101.378 138.921 101.189 139.089 101.024C139.26 100.859 139.469 100.727 139.715 100.628C139.964 100.529 140.249 100.479 140.57 100.479C140.93 100.479 141.257 100.536 141.551 100.65C141.848 100.764 142.109 100.929 142.334 101.145L142.122 101.559ZM147.688 106.289L147.684 107H143.71V100.551H147.684V101.262H144.583V103.404H147.094V104.088H144.583V106.289H147.688ZM154.129 100.551V107H153.693C153.624 107 153.565 106.988 153.517 106.964C153.472 106.94 153.427 106.899 153.382 106.842L149.652 101.982C149.658 102.057 149.662 102.131 149.665 102.203C149.668 102.275 149.67 102.342 149.67 102.405V107H148.905V100.551H149.355C149.394 100.551 149.427 100.554 149.454 100.56C149.481 100.563 149.505 100.571 149.526 100.583C149.547 100.592 149.568 100.607 149.589 100.628C149.61 100.646 149.632 100.67 149.656 100.7L153.387 105.555C153.381 105.477 153.375 105.402 153.369 105.33C153.366 105.255 153.364 105.185 153.364 105.119V100.551H154.129ZM161.367 103.778C161.367 104.261 161.29 104.7 161.137 105.096C160.984 105.492 160.768 105.831 160.489 106.113C160.21 106.395 159.874 106.614 159.481 106.77C159.091 106.923 158.659 107 158.185 107H155.778V100.551H158.185C158.659 100.551 159.091 100.629 159.481 100.785C159.874 100.938 160.21 101.157 160.489 101.442C160.768 101.724 160.984 102.063 161.137 102.459C161.29 102.855 161.367 103.295 161.367 103.778ZM160.471 103.778C160.471 103.382 160.417 103.028 160.309 102.716C160.201 102.404 160.048 102.14 159.85 101.924C159.652 101.708 159.412 101.543 159.13 101.429C158.848 101.315 158.533 101.258 158.185 101.258H156.651V106.293H158.185C158.533 106.293 158.848 106.236 159.13 106.122C159.412 106.008 159.652 105.845 159.85 105.632C160.048 105.416 160.201 105.152 160.309 104.84C160.417 104.528 160.471 104.174 160.471 103.778Z" fill="#AA8F66"/>
<path d="M172.697 83H171.824V76.5515H172.697V83Z" fill="black"/>
</svg>
