<svg width="229" height="125" viewBox="0 0 229 125" fill="none" xmlns="http://www.w3.org/2000/svg">
<path d="M111.533 10.5515V17H110.768V12.2615C110.768 12.1985 110.77 12.131 110.773 12.059C110.779 11.987 110.785 11.9135 110.791 11.8385L108.577 15.8705C108.508 16.0055 108.403 16.073 108.262 16.073H108.136C107.995 16.073 107.89 16.0055 107.821 15.8705L105.562 11.8205C105.58 11.9795 105.589 12.1265 105.589 12.2615V17H104.824V10.5515H105.467C105.545 10.5515 105.605 10.559 105.647 10.574C105.689 10.589 105.73 10.631 105.769 10.7L107.996 14.669C108.032 14.741 108.067 14.816 108.1 14.894C108.136 14.972 108.169 15.0515 108.199 15.1325C108.229 15.0515 108.26 14.972 108.293 14.894C108.326 14.813 108.362 14.7365 108.401 14.6645L110.588 10.7C110.624 10.631 110.663 10.589 110.705 10.574C110.75 10.559 110.812 10.5515 110.89 10.5515H111.533ZM116.606 14.606L115.594 11.9825C115.564 11.9045 115.532 11.8145 115.499 11.7125C115.466 11.6075 115.435 11.4965 115.405 11.3795C115.342 11.6225 115.277 11.825 115.211 11.987L114.199 14.606H116.606ZM118.424 17H117.749C117.671 17 117.608 16.9805 117.56 16.9415C117.512 16.9025 117.476 16.853 117.452 16.793L116.849 15.236H113.956L113.353 16.793C113.335 16.847 113.3 16.895 113.249 16.937C113.198 16.979 113.135 17 113.06 17H112.385L114.964 10.5515H115.846L118.424 17ZM121.176 13.895C121.425 13.895 121.644 13.862 121.833 13.796C122.025 13.73 122.186 13.6385 122.315 13.5215C122.447 13.4015 122.546 13.259 122.612 13.094C122.678 12.929 122.711 12.7475 122.711 12.5495C122.711 12.1385 122.583 11.8175 122.328 11.5865C122.076 11.3555 121.692 11.24 121.176 11.24H120.141V13.895H121.176ZM121.176 10.5515C121.584 10.5515 121.938 10.5995 122.238 10.6955C122.541 10.7885 122.792 10.922 122.99 11.096C123.188 11.27 123.335 11.48 123.431 11.726C123.53 11.972 123.579 12.2465 123.579 12.5495C123.579 12.8495 123.527 13.124 123.422 13.373C123.317 13.622 123.162 13.8365 122.958 14.0165C122.757 14.1965 122.507 14.3375 122.207 14.4395C121.91 14.5385 121.566 14.588 121.176 14.588H120.141V17H119.273V10.5515H121.176ZM127.976 11.5595C127.949 11.6045 127.919 11.639 127.886 11.663C127.856 11.684 127.819 11.6945 127.774 11.6945C127.723 11.6945 127.663 11.669 127.594 11.618C127.525 11.567 127.438 11.5115 127.333 11.4515C127.231 11.3885 127.106 11.3315 126.959 11.2805C126.815 11.2295 126.64 11.204 126.433 11.204C126.238 11.204 126.065 11.231 125.915 11.285C125.768 11.336 125.644 11.4065 125.542 11.4965C125.443 11.5865 125.368 11.693 125.317 11.816C125.266 11.936 125.24 12.0665 125.24 12.2075C125.24 12.3875 125.284 12.5375 125.371 12.6575C125.461 12.7745 125.578 12.875 125.722 12.959C125.869 13.043 126.034 13.1165 126.217 13.1795C126.403 13.2395 126.592 13.3025 126.784 13.3685C126.979 13.4345 127.168 13.5095 127.351 13.5935C127.537 13.6745 127.702 13.778 127.846 13.904C127.993 14.03 128.11 14.1845 128.197 14.3675C128.287 14.5505 128.332 14.7755 128.332 15.0425C128.332 15.3245 128.284 15.59 128.188 15.839C128.092 16.085 127.951 16.2995 127.765 16.4825C127.582 16.6655 127.355 16.8095 127.085 16.9145C126.818 17.0195 126.514 17.072 126.172 17.072C125.752 17.072 125.371 16.997 125.029 16.847C124.687 16.694 124.394 16.4885 124.151 16.2305L124.403 15.8165C124.427 15.7835 124.456 15.7565 124.489 15.7355C124.525 15.7115 124.564 15.6995 124.606 15.6995C124.645 15.6995 124.688 15.716 124.736 15.749C124.787 15.779 124.844 15.818 124.907 15.866C124.97 15.914 125.042 15.9665 125.123 16.0235C125.204 16.0805 125.296 16.133 125.398 16.181C125.503 16.229 125.621 16.2695 125.753 16.3025C125.885 16.3325 126.034 16.3475 126.199 16.3475C126.406 16.3475 126.59 16.319 126.752 16.262C126.914 16.205 127.051 16.1255 127.162 16.0235C127.276 15.9185 127.363 15.794 127.423 15.65C127.483 15.506 127.513 15.3455 127.513 15.1685C127.513 14.9735 127.468 14.8145 127.378 14.6915C127.291 14.5655 127.175 14.4605 127.031 14.3765C126.887 14.2925 126.722 14.222 126.536 14.165C126.35 14.105 126.161 14.045 125.969 13.985C125.777 13.922 125.588 13.85 125.402 13.769C125.216 13.688 125.051 13.583 124.907 13.454C124.763 13.325 124.646 13.1645 124.556 12.9725C124.469 12.7775 124.426 12.5375 124.426 12.2525C124.426 12.0245 124.469 11.804 124.556 11.591C124.646 11.378 124.775 11.189 124.943 11.024C125.114 10.859 125.323 10.727 125.569 10.628C125.818 10.529 126.103 10.4795 126.424 10.4795C126.784 10.4795 127.111 10.5365 127.405 10.6505C127.702 10.7645 127.963 10.9295 128.188 11.1455L127.976 11.5595Z" fill="#AA8F66"/>
<rect x="0.5" y="0.5" width="227" height="124" stroke="black"/>
<line x1="17" y1="13.5" x2="33" y2="13.5" stroke="black"/>
<line x1="59" y1="13.5" x2="75" y2="13.5" stroke="black"/>
<line x1="155" y1="13.5" x2="170" y2="13.5" stroke="black"/>
<line x1="197" y1="13.5" x2="212" y2="13.5" stroke="black"/>
<line x1="1.00033" y1="27.9126" x2="228.001" y2="28.5052" stroke="black"/>
<line x1="1" y1="53.5" x2="21" y2="53.5" stroke="black"/>
<line x1="30.5" y1="28" x2="30.5" y2="49" stroke="black"/>
<line x1="33.5" y1="28" x2="33.5" y2="49" stroke="black"/>
<line x1="70.5" y1="28" x2="70.5" y2="59" stroke="black"/>
<line x1="75.5" y1="29" x2="75.5" y2="59" stroke="black"/>
<line x1="76" y1="39.5" x2="115" y2="39.5" stroke="black"/>
<line x1="76" y1="44.5" x2="115" y2="44.5" stroke="black"/>
<line x1="115.5" y1="28" x2="115.5" y2="59" stroke="black"/>
<line x1="44" y1="58.5" x2="115" y2="58.5" stroke="black"/>
<line x1="44" y1="62.5" x2="116" y2="62.5" stroke="black"/>
<line x1="116.5" y1="62" x2="116.5" y2="94" stroke="black"/>
<line x1="75.5" y1="63" x2="75.5" y2="95" stroke="black"/>
<line x1="70.5" y1="63" x2="70.5" y2="95" stroke="black"/>
<line x1="1" y1="94.5" x2="228" y2="94.5" stroke="black"/>
<line x1="10.5" y1="59" x2="10.5" y2="95" stroke="black"/>
<line x1="15.5" y1="61" x2="15.5" y2="95" stroke="black"/>
<line x1="36.361" y1="70.654" x2="59.361" y2="94.654" stroke="black"/>
<line x1="30.3617" y1="72.6548" x2="51.3617" y2="94.6548" stroke="black"/>
<line y1="59.5" x2="19" y2="59.5" stroke="black"/>
<line x1="123.5" y1="28" x2="123.5" y2="62" stroke="black"/>
<line x1="123" y1="61.5" x2="160" y2="61.5" stroke="black"/>
<line x1="159.5" y1="62" x2="159.5" y2="28" stroke="black"/>
<line x1="125" y1="67.5" x2="157" y2="67.5" stroke="black"/>
<line x1="122.5" y1="95" x2="122.5" y2="72" stroke="black"/>
<line x1="123" y1="72.5" x2="160" y2="72.5" stroke="black"/>
<line x1="159.5" y1="73" x2="159.5" y2="95" stroke="black"/>
<line x1="166.5" y1="37" x2="166.5" y2="46" stroke="black"/>
<line x1="166.5" y1="53" x2="166.5" y2="60" stroke="black"/>
<line x1="166.5" y1="65" x2="166.5" y2="73" stroke="black"/>
<line x1="166.5" y1="80" x2="166.5" y2="89" stroke="black"/>
<line x1="171.5" y1="27" x2="171.5" y2="95" stroke="black"/>
<line x1="187.5" y1="27" x2="187.5" y2="95" stroke="black"/>
<line x1="172" y1="40.5" x2="188" y2="40.5" stroke="black"/>
<line x1="172" y1="48.5" x2="188" y2="48.5" stroke="black"/>
<line x1="193.5" y1="38" x2="193.5" y2="46" stroke="black"/>
<line x1="193.5" y1="53" x2="193.5" y2="60" stroke="black"/>
<line x1="193.5" y1="65" x2="193.5" y2="73" stroke="black"/>
<line x1="193.5" y1="80" x2="193.5" y2="89" stroke="black"/>
<line x1="197.5" y1="68" x2="197.5" y2="95" stroke="black"/>
<line x1="197.354" y1="67.6464" x2="224.354" y2="94.6464" stroke="black"/>
<line x1="227.646" y1="91.3536" x2="199.646" y2="63.3536" stroke="black"/>
<line x1="199.5" y1="63" x2="199.5" y2="28" stroke="black"/>
<line x1="200" y1="40.5" x2="227" y2="40.5" stroke="black"/>
<line x1="200" y1="46.5" x2="227" y2="46.5" stroke="black"/>
<circle cx="32" cy="61" r="12.5" stroke="black"/>
<circle cx="31.5" cy="60.5" r="3" stroke="black"/>
<circle cx="53" cy="39" r="2" fill="black"/>
<rect x="11.5" y="101.5" width="94" height="12" stroke="black"/>
<rect x="119.5" y="101.5" width="63" height="12" stroke="black"/>
<path d="M48.9999 34.9998C51.7999 31.7998 55.8332 33.3331 57.4999 34.4998C58.3332 34.9998 58.6999 39.4998 53.4999 53.4998C50.8332 48.6664 46.1999 38.1998 48.9999 34.9998Z" stroke="black"/>
</svg>
