<svg width="228" height="62" viewBox="0 0 228 62" fill="none" xmlns="http://www.w3.org/2000/svg">
<rect x="0.5" y="4.5" width="227" height="57" stroke="black"/>
<rect x="122.5" y="25.5" width="13" height="14" stroke="black"/>
<rect x="145.5" y="25.5" width="13" height="14" stroke="black"/>
<rect x="169.5" y="25.5" width="13" height="14" stroke="black"/>
<path d="M127.932 36V32.1255L127.428 32.067C127.365 32.052 127.312 32.0295 127.27 31.9995C127.231 31.9665 127.212 31.92 127.212 31.86V31.5315H127.932V31.0905C127.932 30.8295 127.968 30.5985 128.04 30.3975C128.115 30.1935 128.22 30.0225 128.355 29.8845C128.493 29.7435 128.658 29.637 128.85 29.565C129.042 29.493 129.258 29.457 129.498 29.457C129.702 29.457 129.889 29.487 130.06 29.547L130.042 29.9475C130.036 30.0195 129.996 30.0585 129.921 30.0645C129.849 30.0705 129.751 30.0735 129.628 30.0735C129.49 30.0735 129.364 30.0915 129.25 30.1275C129.139 30.1635 129.043 30.222 128.962 30.303C128.881 30.384 128.818 30.4905 128.773 30.6225C128.731 30.7545 128.71 30.918 128.71 31.113V31.5315H130.024V32.112H128.737V36H127.932Z" fill="black"/>
<path d="M153.034 36.072C152.674 36.072 152.397 35.9715 152.202 35.7705C152.01 35.5695 151.914 35.28 151.914 34.902V32.112H151.365C151.317 32.112 151.276 32.0985 151.243 32.0715C151.21 32.0415 151.194 31.9965 151.194 31.9365V31.617L151.941 31.5225L152.125 30.114C152.134 30.069 152.154 30.033 152.184 30.006C152.217 29.976 152.259 29.961 152.31 29.961H152.715V31.5315H154.033V32.112H152.715V34.848C152.715 35.04 152.761 35.1825 152.854 35.2755C152.947 35.3685 153.067 35.415 153.214 35.415C153.298 35.415 153.37 35.4045 153.43 35.3835C153.493 35.3595 153.547 35.334 153.592 35.307C153.637 35.28 153.675 35.256 153.705 35.235C153.738 35.211 153.766 35.199 153.79 35.199C153.832 35.199 153.87 35.2245 153.903 35.2755L154.137 35.658C153.999 35.787 153.832 35.889 153.637 35.964C153.442 36.036 153.241 36.072 153.034 36.072Z" fill="black"/>
<path d="M176.697 36H175.824V29.5515H176.697V36Z" fill="black"/>
<line x1="10" y1="49.5" x2="89" y2="49.5" stroke="black"/>
<line x1="207" y1="13.5" x2="183" y2="13.5" stroke="black"/>
<line x1="175" y1="13.5" x2="151" y2="13.5" stroke="black"/>
<line x1="143" y1="13.5" x2="119" y2="13.5" stroke="black"/>
<line x1="111" y1="13.5" x2="87" y2="13.5" stroke="black"/>
<rect x="15.5" y="0.5" width="27" height="27" fill="#AA8F66" stroke="black"/>
<path d="M23.482 15.2665V16H19.8235V9.5515H20.692V15.2665H23.482ZM25.8539 11.3695C26.1869 11.3695 26.4869 11.425 26.7539 11.536C27.0209 11.647 27.2489 11.8045 27.4379 12.0085C27.6269 12.2125 27.7709 12.46 27.8699 12.751C27.9719 13.039 28.0229 13.3615 28.0229 13.7185C28.0229 14.0785 27.9719 14.4025 27.8699 14.6905C27.7709 14.9785 27.6269 15.2245 27.4379 15.4285C27.2489 15.6325 27.0209 15.79 26.7539 15.901C26.4869 16.009 26.1869 16.063 25.8539 16.063C25.5179 16.063 25.2149 16.009 24.9449 15.901C24.6779 15.79 24.4499 15.6325 24.2609 15.4285C24.0719 15.2245 23.9264 14.9785 23.8244 14.6905C23.7254 14.4025 23.6759 14.0785 23.6759 13.7185C23.6759 13.3615 23.7254 13.039 23.8244 12.751C23.9264 12.46 24.0719 12.2125 24.2609 12.0085C24.4499 11.8045 24.6779 11.647 24.9449 11.536C25.2149 11.425 25.5179 11.3695 25.8539 11.3695ZM25.8539 15.4375C26.3039 15.4375 26.6399 15.2875 26.8619 14.9875C27.0839 14.6845 27.1949 14.263 27.1949 13.723C27.1949 13.18 27.0839 12.757 26.8619 12.454C26.6399 12.151 26.3039 11.9995 25.8539 11.9995C25.6259 11.9995 25.4264 12.0385 25.2554 12.1165C25.0874 12.1945 24.9464 12.307 24.8324 12.454C24.7214 12.601 24.6374 12.7825 24.5804 12.9985C24.5264 13.2115 24.4994 13.453 24.4994 13.723C24.4994 14.263 24.6104 14.6845 24.8324 14.9875C25.0574 15.2875 25.3979 15.4375 25.8539 15.4375ZM30.6009 13.7725C30.7629 13.7725 30.9054 13.75 31.0284 13.705C31.1514 13.66 31.2549 13.597 31.3389 13.516C31.4229 13.435 31.4859 13.339 31.5279 13.228C31.5699 13.114 31.5909 12.9895 31.5909 12.8545C31.5909 12.5755 31.5054 12.3535 31.3344 12.1885C31.1664 12.0235 30.9219 11.941 30.6009 11.941C30.2769 11.941 30.0294 12.0235 29.8584 12.1885C29.6904 12.3535 29.6064 12.5755 29.6064 12.8545C29.6064 12.9895 29.6274 13.114 29.6694 13.228C29.7144 13.339 29.7789 13.435 29.8629 13.516C29.9469 13.597 30.0504 13.66 30.1734 13.705C30.2964 13.75 30.4389 13.7725 30.6009 13.7725ZM32.0454 16.2475C32.0454 16.1365 32.0139 16.0465 31.9509 15.9775C31.8879 15.9085 31.8024 15.8545 31.6944 15.8155C31.5894 15.7765 31.4664 15.7495 31.3254 15.7345C31.1844 15.7165 31.0344 15.703 30.8754 15.694C30.7194 15.685 30.5604 15.676 30.3984 15.667C30.2364 15.658 30.0804 15.643 29.9304 15.622C29.7624 15.7 29.6244 15.799 29.5164 15.919C29.4114 16.036 29.3589 16.174 29.3589 16.333C29.3589 16.435 29.3844 16.5295 29.4354 16.6165C29.4894 16.7065 29.5704 16.783 29.6784 16.846C29.7864 16.912 29.9214 16.963 30.0834 16.999C30.2484 17.038 30.4419 17.0575 30.6639 17.0575C30.8799 17.0575 31.0734 17.038 31.2444 16.999C31.4154 16.96 31.5594 16.9045 31.6764 16.8325C31.7964 16.7605 31.8879 16.675 31.9509 16.576C32.0139 16.477 32.0454 16.3675 32.0454 16.2475ZM32.8599 11.6215V11.9185C32.8599 12.0175 32.7969 12.0805 32.6709 12.1075L32.1534 12.175C32.2554 12.373 32.3064 12.592 32.3064 12.832C32.3064 13.054 32.2629 13.2565 32.1759 13.4395C32.0919 13.6195 31.9749 13.774 31.8249 13.903C31.6749 14.032 31.4949 14.131 31.2849 14.2C31.0749 14.269 30.8469 14.3035 30.6009 14.3035C30.3879 14.3035 30.1869 14.278 29.9979 14.227C29.9019 14.287 29.8284 14.3515 29.7774 14.4205C29.7264 14.4865 29.7009 14.554 29.7009 14.623C29.7009 14.731 29.7444 14.8135 29.8314 14.8705C29.9214 14.9245 30.0384 14.9635 30.1824 14.9875C30.3264 15.0115 30.4899 15.0265 30.6729 15.0325C30.8589 15.0385 31.0479 15.049 31.2399 15.064C31.4349 15.076 31.6239 15.0985 31.8069 15.1315C31.9929 15.1645 32.1579 15.2185 32.3019 15.2935C32.4459 15.3685 32.5614 15.472 32.6484 15.604C32.7384 15.736 32.7834 15.907 32.7834 16.117C32.7834 16.312 32.7339 16.501 32.6349 16.684C32.5389 16.867 32.3994 17.029 32.2164 17.17C32.0334 17.314 31.8084 17.428 31.5414 17.512C31.2774 17.599 30.9789 17.6425 30.6459 17.6425C30.3129 17.6425 30.0219 17.6095 29.7729 17.5435C29.5239 17.4775 29.3169 17.389 29.1519 17.278C28.9869 17.167 28.8624 17.038 28.7784 16.891C28.6974 16.747 28.6569 16.5955 28.6569 16.4365C28.6569 16.2115 28.7274 16.021 28.8684 15.865C29.0094 15.709 29.2029 15.5845 29.4489 15.4915C29.3139 15.4315 29.2059 15.352 29.1249 15.253C29.0469 15.151 29.0079 15.0145 29.0079 14.8435C29.0079 14.7775 29.0199 14.71 29.0439 14.641C29.0679 14.569 29.1039 14.4985 29.1519 14.4295C29.2029 14.3575 29.2644 14.29 29.3364 14.227C29.4084 14.164 29.4924 14.1085 29.5884 14.0605C29.3634 13.9345 29.1879 13.768 29.0619 13.561C28.9359 13.351 28.8729 13.108 28.8729 12.832C28.8729 12.61 28.9149 12.409 28.9989 12.229C29.0859 12.046 29.2059 11.8915 29.3589 11.7655C29.5119 11.6365 29.6934 11.5375 29.9034 11.4685C30.1164 11.3995 30.3489 11.365 30.6009 11.365C30.7989 11.365 30.9834 11.3875 31.1544 11.4325C31.3254 11.4745 31.4814 11.5375 31.6224 11.6215H32.8599ZM35.5394 11.3695C35.8724 11.3695 36.1724 11.425 36.4394 11.536C36.7064 11.647 36.9344 11.8045 37.1234 12.0085C37.3124 12.2125 37.4564 12.46 37.5554 12.751C37.6574 13.039 37.7084 13.3615 37.7084 13.7185C37.7084 14.0785 37.6574 14.4025 37.5554 14.6905C37.4564 14.9785 37.3124 15.2245 37.1234 15.4285C36.9344 15.6325 36.7064 15.79 36.4394 15.901C36.1724 16.009 35.8724 16.063 35.5394 16.063C35.2034 16.063 34.9004 16.009 34.6304 15.901C34.3634 15.79 34.1354 15.6325 33.9464 15.4285C33.7574 15.2245 33.6119 14.9785 33.5099 14.6905C33.4109 14.4025 33.3614 14.0785 33.3614 13.7185C33.3614 13.3615 33.4109 13.039 33.5099 12.751C33.6119 12.46 33.7574 12.2125 33.9464 12.0085C34.1354 11.8045 34.3634 11.647 34.6304 11.536C34.9004 11.425 35.2034 11.3695 35.5394 11.3695ZM35.5394 15.4375C35.9894 15.4375 36.3254 15.2875 36.5474 14.9875C36.7694 14.6845 36.8804 14.263 36.8804 13.723C36.8804 13.18 36.7694 12.757 36.5474 12.454C36.3254 12.151 35.9894 11.9995 35.5394 11.9995C35.3114 11.9995 35.1119 12.0385 34.9409 12.1165C34.7729 12.1945 34.6319 12.307 34.5179 12.454C34.4069 12.601 34.3229 12.7825 34.2659 12.9985C34.2119 13.2115 34.1849 13.453 34.1849 13.723C34.1849 14.263 34.2959 14.6845 34.5179 14.9875C34.7429 15.2875 35.0834 15.4375 35.5394 15.4375Z" fill="#FFEEDB"/>
</svg>
